<svg width="41" height="41" viewBox="0 0 41 41" fill="none" xmlns="http://www.w3.org/2000/svg">
<path d="M41 11.8269C41 12.2624 40.647 12.6154 40.2115 12.6154H38.6346C38.1992 12.6154 37.8462 12.2624 37.8462 11.8269V10.25C37.8462 9.81454 38.1992 9.46154 38.6346 9.46154H40.2115C40.647 9.46154 41 9.81454 41 10.25V11.8269Z" fill="#0E123B"/>
<path d="M41 2.36538C41 2.80084 40.647 3.15385 40.2115 3.15385H38.6346C38.1992 3.15385 37.8462 2.80084 37.8462 2.36538V0.78846C37.8462 0.353004 38.1992 0 38.6346 0H40.2115C40.647 0 41 0.353004 41 0.78846V2.36538Z" fill="#0E123B"/>
<path d="M31.5385 30.75C31.5385 31.1855 31.1855 31.5385 30.75 31.5385H29.1731C28.7376 31.5385 28.3846 31.1855 28.3846 30.75V29.1731C28.3846 28.7376 28.7376 28.3846 29.1731 28.3846H30.75C31.1855 28.3846 31.5385 28.7376 31.5385 29.1731V30.75Z" fill="#0E123B"/>
<path d="M31.5385 21.2885C31.5385 21.7239 31.1855 22.0769 30.75 22.0769H29.1731C28.7376 22.0769 28.3846 21.7239 28.3846 21.2885V19.7115C28.3846 19.2761 28.7376 18.9231 29.1731 18.9231H30.75C31.1855 18.9231 31.5385 19.2761 31.5385 19.7115V21.2885Z" fill="#0E123B"/>
<path d="M31.5385 11.8269C31.5385 12.2624 31.1855 12.6154 30.75 12.6154H29.1731C28.7376 12.6154 28.3846 12.2624 28.3846 11.8269V10.25C28.3846 9.81454 28.7376 9.46154 29.1731 9.46154H30.75C31.1855 9.46154 31.5385 9.81454 31.5385 10.25V11.8269Z" fill="#0E123B"/>
<path d="M31.5385 2.36538C31.5385 2.80084 31.1855 3.15385 30.75 3.15385H29.1731C28.7376 3.15385 28.3846 2.80084 28.3846 2.36538V0.78846C28.3846 0.353004 28.7376 0 29.1731 0H30.75C31.1855 0 31.5385 0.353004 31.5385 0.78846V2.36538Z" fill="#0E123B"/>
<path d="M12.6154 40.2115C12.6154 40.647 12.2624 41 11.8269 41H10.25C9.81454 41 9.46154 40.647 9.46154 40.2115V38.6346C9.46154 38.1992 9.81454 37.8462 10.25 37.8462H11.8269C12.2624 37.8462 12.6154 38.1992 12.6154 38.6346V40.2115Z" fill="#0E123B"/>
<path d="M12.6154 30.75C12.6154 31.1855 12.2624 31.5385 11.8269 31.5385H10.25C9.81454 31.5385 9.46154 31.1855 9.46154 30.75V29.1731C9.46154 28.7376 9.81454 28.3846 10.25 28.3846H11.8269C12.2624 28.3846 12.6154 28.7376 12.6154 29.1731V30.75Z" fill="#0E123B"/>
<path d="M12.6154 21.2885C12.6154 21.7239 12.2624 22.0769 11.8269 22.0769H10.25C9.81454 22.0769 9.46154 21.7239 9.46154 21.2885V19.7115C9.46154 19.2761 9.81454 18.9231 10.25 18.9231H11.8269C12.2624 18.9231 12.6154 19.2761 12.6154 19.7115V21.2885Z" fill="#0E123B"/>
<path d="M12.6154 11.8269C12.6154 12.2624 12.2624 12.6154 11.8269 12.6154H10.25C9.81454 12.6154 9.46154 12.2624 9.46154 11.8269V10.25C9.46154 9.81454 9.81454 9.46154 10.25 9.46154H11.8269C12.2624 9.46154 12.6154 9.81454 12.6154 10.25V11.8269Z" fill="#0E123B"/>
<path d="M12.6154 2.36538C12.6154 2.80084 12.2624 3.15385 11.8269 3.15385H10.25C9.81454 3.15385 9.46154 2.80084 9.46154 2.36538V0.78846C9.46154 0.353004 9.81454 0 10.25 0H11.8269C12.2624 0 12.6154 0.353004 12.6154 0.78846V2.36538Z" fill="#0E123B"/>
<path d="M22.0769 30.75C22.0769 31.1855 21.7239 31.5385 21.2885 31.5385H19.7115C19.2761 31.5385 18.9231 31.1855 18.9231 30.75V29.1731C18.9231 28.7376 19.2761 28.3846 19.7115 28.3846H21.2885C21.7239 28.3846 22.0769 28.7376 22.0769 29.1731V30.75Z" fill="#0E123B"/>
<path d="M22.0769 21.2885C22.0769 21.7239 21.7239 22.0769 21.2885 22.0769H19.7115C19.2761 22.0769 18.9231 21.7239 18.9231 21.2885V19.7115C18.9231 19.2761 19.2761 18.9231 19.7115 18.9231H21.2885C21.7239 18.9231 22.0769 19.2761 22.0769 19.7115V21.2885Z" fill="#0E123B"/>
<path d="M22.0769 11.8269C22.0769 12.2624 21.7239 12.6154 21.2885 12.6154H19.7115C19.2761 12.6154 18.9231 12.2624 18.9231 11.8269V10.25C18.9231 9.81454 19.2761 9.46154 19.7115 9.46154H21.2885C21.7239 9.46154 22.0769 9.81454 22.0769 10.25V11.8269Z" fill="#0E123B"/>
<path d="M22.0769 2.36538C22.0769 2.80084 21.7239 3.15385 21.2885 3.15385H19.7115C19.2761 3.15385 18.9231 2.80084 18.9231 2.36538V0.78846C18.9231 0.353004 19.2761 0 19.7115 0H21.2885C21.7239 0 22.0769 0.353004 22.0769 0.78846V2.36538Z" fill="#0E123B"/>
<path d="M3.15385 40.2115C3.15385 40.647 2.80084 41 2.36538 41H0.78846C0.353004 41 0 40.647 0 40.2115V38.6346C0 38.1992 0.353004 37.8462 0.78846 37.8462H2.36538C2.80084 37.8462 3.15385 38.1992 3.15385 38.6346V40.2115Z" fill="#0E123B"/>
<path d="M3.15385 30.75C3.15385 31.1855 2.80084 31.5385 2.36538 31.5385H0.78846C0.353004 31.5385 0 31.1855 0 30.75V29.1731C0 28.7376 0.353004 28.3846 0.78846 28.3846H2.36538C2.80084 28.3846 3.15385 28.7376 3.15385 29.1731V30.75Z" fill="#0E123B"/>
<path d="M3.15385 21.2885C3.15385 21.7239 2.80084 22.0769 2.36538 22.0769H0.78846C0.353004 22.0769 0 21.7239 0 21.2885V19.7115C0 19.2761 0.353004 18.9231 0.78846 18.9231H2.36538C2.80084 18.9231 3.15385 19.2761 3.15385 19.7115V21.2885Z" fill="#0E123B"/>
<path d="M3.15385 11.8269C3.15385 12.2624 2.80084 12.6154 2.36538 12.6154H0.78846C0.353004 12.6154 0 12.2624 0 11.8269V10.25C0 9.81454 0.353004 9.46154 0.78846 9.46154H2.36538C2.80084 9.46154 3.15385 9.81454 3.15385 10.25V11.8269Z" fill="#0E123B"/>
<path d="M3.15385 2.36538C3.15385 2.80084 2.80084 3.15385 2.36538 3.15385H0.78846C0.353004 3.15385 0 2.80084 0 2.36538V0.78846C0 0.353004 0.353004 0 0.78846 0H2.36538C2.80084 0 3.15385 0.353004 3.15385 0.78846V2.36538Z" fill="#0E123B"/>
</svg>
