<svg width="41" height="41" viewBox="0 0 41 41" fill="none" xmlns="http://www.w3.org/2000/svg">
<path d="M0 11.8269C0 12.2624 0.353006 12.6154 0.788462 12.6154H2.36538C2.80084 12.6154 3.15385 12.2624 3.15385 11.8269V10.25C3.15385 9.81454 2.80084 9.46154 2.36538 9.46154H0.788462C0.353006 9.46154 0 9.81454 0 10.25V11.8269Z" fill="#0E123B"/>
<path d="M0 2.36538C0 2.80084 0.353006 3.15385 0.788462 3.15385H2.36538C2.80084 3.15385 3.15385 2.80084 3.15385 2.36538V0.78846C3.15385 0.353004 2.80084 0 2.36538 0H0.788462C0.353006 0 0 0.353004 0 0.78846V2.36538Z" fill="#0E123B"/>
<path d="M9.46154 30.75C9.46154 31.1855 9.81454 31.5385 10.25 31.5385H11.8269C12.2624 31.5385 12.6154 31.1855 12.6154 30.75V29.1731C12.6154 28.7376 12.2624 28.3846 11.8269 28.3846H10.25C9.81454 28.3846 9.46154 28.7376 9.46154 29.1731V30.75Z" fill="#0E123B"/>
<path d="M9.46154 21.2885C9.46154 21.7239 9.81454 22.0769 10.25 22.0769H11.8269C12.2624 22.0769 12.6154 21.7239 12.6154 21.2885V19.7115C12.6154 19.2761 12.2624 18.9231 11.8269 18.9231H10.25C9.81454 18.9231 9.46154 19.2761 9.46154 19.7115V21.2885Z" fill="#0E123B"/>
<path d="M9.46154 11.8269C9.46154 12.2624 9.81454 12.6154 10.25 12.6154H11.8269C12.2624 12.6154 12.6154 12.2624 12.6154 11.8269V10.25C12.6154 9.81454 12.2624 9.46154 11.8269 9.46154H10.25C9.81454 9.46154 9.46154 9.81454 9.46154 10.25V11.8269Z" fill="#0E123B"/>
<path d="M9.46154 2.36538C9.46154 2.80084 9.81454 3.15385 10.25 3.15385H11.8269C12.2624 3.15385 12.6154 2.80084 12.6154 2.36538V0.78846C12.6154 0.353004 12.2624 0 11.8269 0H10.25C9.81454 0 9.46154 0.353004 9.46154 0.78846V2.36538Z" fill="#0E123B"/>
<path d="M28.3846 40.2115C28.3846 40.647 28.7376 41 29.1731 41H30.75C31.1855 41 31.5385 40.647 31.5385 40.2115V38.6346C31.5385 38.1992 31.1855 37.8462 30.75 37.8462H29.1731C28.7376 37.8462 28.3846 38.1992 28.3846 38.6346V40.2115Z" fill="#0E123B"/>
<path d="M28.3846 30.75C28.3846 31.1855 28.7376 31.5385 29.1731 31.5385H30.75C31.1855 31.5385 31.5385 31.1855 31.5385 30.75V29.1731C31.5385 28.7376 31.1855 28.3846 30.75 28.3846H29.1731C28.7376 28.3846 28.3846 28.7376 28.3846 29.1731V30.75Z" fill="#0E123B"/>
<path d="M28.3846 21.2885C28.3846 21.7239 28.7376 22.0769 29.1731 22.0769H30.75C31.1855 22.0769 31.5385 21.7239 31.5385 21.2885V19.7115C31.5385 19.2761 31.1855 18.9231 30.75 18.9231H29.1731C28.7376 18.9231 28.3846 19.2761 28.3846 19.7115V21.2885Z" fill="#0E123B"/>
<path d="M28.3846 11.8269C28.3846 12.2624 28.7376 12.6154 29.1731 12.6154H30.75C31.1855 12.6154 31.5385 12.2624 31.5385 11.8269V10.25C31.5385 9.81454 31.1855 9.46154 30.75 9.46154H29.1731C28.7376 9.46154 28.3846 9.81454 28.3846 10.25V11.8269Z" fill="#0E123B"/>
<path d="M28.3846 2.36538C28.3846 2.80084 28.7376 3.15385 29.1731 3.15385H30.75C31.1855 3.15385 31.5385 2.80084 31.5385 2.36538V0.78846C31.5385 0.353004 31.1855 0 30.75 0H29.1731C28.7376 0 28.3846 0.353004 28.3846 0.78846V2.36538Z" fill="#0E123B"/>
<path d="M18.9231 30.75C18.9231 31.1855 19.2761 31.5385 19.7115 31.5385H21.2885C21.7239 31.5385 22.0769 31.1855 22.0769 30.75V29.1731C22.0769 28.7376 21.7239 28.3846 21.2885 28.3846H19.7115C19.2761 28.3846 18.9231 28.7376 18.9231 29.1731V30.75Z" fill="#0E123B"/>
<path d="M18.9231 21.2885C18.9231 21.7239 19.2761 22.0769 19.7115 22.0769H21.2885C21.7239 22.0769 22.0769 21.7239 22.0769 21.2885V19.7115C22.0769 19.2761 21.7239 18.9231 21.2885 18.9231H19.7115C19.2761 18.9231 18.9231 19.2761 18.9231 19.7115V21.2885Z" fill="#0E123B"/>
<path d="M18.9231 11.8269C18.9231 12.2624 19.2761 12.6154 19.7115 12.6154H21.2885C21.7239 12.6154 22.0769 12.2624 22.0769 11.8269V10.25C22.0769 9.81454 21.7239 9.46154 21.2885 9.46154H19.7115C19.2761 9.46154 18.9231 9.81454 18.9231 10.25V11.8269Z" fill="#0E123B"/>
<path d="M18.9231 2.36538C18.9231 2.80084 19.2761 3.15385 19.7115 3.15385H21.2885C21.7239 3.15385 22.0769 2.80084 22.0769 2.36538V0.78846C22.0769 0.353004 21.7239 0 21.2885 0H19.7115C19.2761 0 18.9231 0.353004 18.9231 0.78846V2.36538Z" fill="#0E123B"/>
<path d="M37.8462 40.2115C37.8462 40.647 38.1992 41 38.6346 41H40.2115C40.647 41 41 40.647 41 40.2115V38.6346C41 38.1992 40.647 37.8462 40.2115 37.8462H38.6346C38.1992 37.8462 37.8462 38.1992 37.8462 38.6346V40.2115Z" fill="#0E123B"/>
<path d="M37.8462 30.75C37.8462 31.1855 38.1992 31.5385 38.6346 31.5385H40.2115C40.647 31.5385 41 31.1855 41 30.75V29.1731C41 28.7376 40.647 28.3846 40.2115 28.3846H38.6346C38.1992 28.3846 37.8462 28.7376 37.8462 29.1731V30.75Z" fill="#0E123B"/>
<path d="M37.8462 21.2885C37.8462 21.7239 38.1992 22.0769 38.6346 22.0769H40.2115C40.647 22.0769 41 21.7239 41 21.2885V19.7115C41 19.2761 40.647 18.9231 40.2115 18.9231H38.6346C38.1992 18.9231 37.8462 19.2761 37.8462 19.7115V21.2885Z" fill="#0E123B"/>
<path d="M37.8462 11.8269C37.8462 12.2624 38.1992 12.6154 38.6346 12.6154H40.2115C40.647 12.6154 41 12.2624 41 11.8269V10.25C41 9.81454 40.647 9.46154 40.2115 9.46154H38.6346C38.1992 9.46154 37.8462 9.81454 37.8462 10.25V11.8269Z" fill="#0E123B"/>
<path d="M37.8462 2.36538C37.8462 2.80084 38.1992 3.15385 38.6346 3.15385H40.2115C40.647 3.15385 41 2.80084 41 2.36538V0.78846C41 0.353004 40.647 0 40.2115 0H38.6346C38.1992 0 37.8462 0.353004 37.8462 0.78846V2.36538Z" fill="#0E123B"/>
</svg>
