<svg width="19" height="19" viewBox="0 0 19 19" fill="none" xmlns="http://www.w3.org/2000/svg">
<path d="M0 9.50658C0 14.7471 4.25 19 9.5 19C14.75 19 19 14.7471 19 9.50658C19 4.25295 14.75 0 9.5 0C4.25 0 0 4.25295 0 9.50658Z" fill="#0E123B"/>
<path d="M9.6053 4.97719C9.57899 4.3715 9.55267 3.76143 9.52635 3.14697C13.1842 3.14697 16.1448 5.99105 16.1448 9.50664C16.1448 13.0091 13.1842 15.8531 9.52635 15.8531C9.50004 15.3089 9.46934 14.7603 9.43425 14.2073C12.2106 14.1678 14.3816 11.9294 14.2895 9.42764C14.1974 7.08391 12.1711 5.09569 9.6053 4.97719Z" fill="#FEFEFE"/>
<path d="M5.86834 9.50644C5.86834 11.6 7.56571 13.2985 9.67097 13.2985C11.7631 13.2985 13.4604 11.6 13.4604 9.50644C13.4604 7.41288 11.7631 5.70117 9.67097 5.70117C7.56571 5.70117 5.86834 7.41288 5.86834 9.50644Z" fill="#FEFEFE"/>
</svg>
