<svg width="14" height="12" viewBox="0 0 14 12" fill="none" xmlns="http://www.w3.org/2000/svg">
<path d="M11.7723 0.66748H1.30751C0.588616 0.66748 0.00627849 1.2561 0.00627849 1.97578L0 9.82399C0 10.5437 0.588616 11.1323 1.30751 11.1323H11.7723C12.4912 11.1323 13.0798 10.5437 13.0798 9.82399V1.97578C13.0798 1.2561 12.4912 0.66748 11.7723 0.66748ZM11.5102 3.44732L6.88681 6.3386C6.7825 6.40283 6.66241 6.43683 6.53992 6.43683C6.41742 6.43683 6.29733 6.40283 6.19303 6.3386L1.56964 3.44732C1.50498 3.41004 1.44848 3.36012 1.40353 3.30054C1.35858 3.24095 1.3261 3.17292 1.30802 3.1005C1.28994 3.02808 1.28664 2.95277 1.29831 2.87905C1.30997 2.80532 1.33638 2.73471 1.37593 2.67141C1.41549 2.60812 1.4674 2.55344 1.52855 2.51065C1.58971 2.46786 1.65885 2.43782 1.73187 2.42234C1.80489 2.40686 1.88027 2.40625 1.95353 2.42054C2.02679 2.43483 2.09642 2.46374 2.15826 2.50553L6.53992 5.24613L10.9216 2.50553C10.9834 2.46374 11.053 2.43483 11.1263 2.42054C11.1996 2.40625 11.2749 2.40686 11.348 2.42234C11.421 2.43782 11.4901 2.46786 11.5513 2.51065C11.6124 2.55344 11.6643 2.60812 11.7039 2.67141C11.7435 2.73471 11.7699 2.80532 11.7815 2.87905C11.7932 2.95277 11.7899 3.02808 11.7718 3.1005C11.7537 3.17292 11.7212 3.24095 11.6763 3.30054C11.6314 3.36012 11.5749 3.41004 11.5102 3.44732Z" fill="#0E123B"/>
</svg>
