<svg width="46" height="46" viewBox="0 0 46 46" fill="none" xmlns="http://www.w3.org/2000/svg">
<path d="M22.9999 15.3333C21.4836 15.3333 20.0013 15.7829 18.7406 16.6253C17.4798 17.4677 16.4971 18.6651 15.9168 20.066C15.3366 21.4669 15.1847 23.0084 15.4806 24.4956C15.7764 25.9828 16.5066 27.3489 17.5788 28.4211C18.651 29.4933 20.017 30.2235 21.5042 30.5193C22.9914 30.8151 24.5329 30.6633 25.9338 30.083C27.3347 29.5027 28.5321 28.5201 29.3745 27.2593C30.2169 25.9985 30.6666 24.5162 30.6666 22.9999C30.6666 20.9666 29.8589 19.0165 28.4211 17.5788C26.9833 16.141 25.0332 15.3333 22.9999 15.3333ZM22.9999 26.8333C22.2418 26.8333 21.5006 26.6084 20.8702 26.1872C20.2398 25.766 19.7485 25.1673 19.4584 24.4669C19.1682 23.7664 19.0923 22.9957 19.2402 22.2521C19.3882 21.5085 19.7532 20.8254 20.2893 20.2893C20.8254 19.7532 21.5085 19.3882 22.2521 19.2402C22.9957 19.0923 23.7664 19.1682 24.4669 19.4584C25.1673 19.7485 25.766 20.2398 26.1872 20.8702C26.6084 21.5006 26.8333 22.2418 26.8333 22.9999C26.8333 24.0166 26.4294 24.9916 25.7105 25.7105C24.9916 26.4294 24.0166 26.8333 22.9999 26.8333Z" fill="#10133B"/>
<path d="M40.8135 26.6417L39.9625 26.151C40.3456 24.0665 40.3456 21.9297 39.9625 19.8452L40.8135 19.3545C41.4679 18.9769 42.0416 18.4742 42.5017 17.875C42.9618 17.2757 43.2994 16.5917 43.4952 15.862C43.691 15.1323 43.7411 14.3711 43.6427 13.6221C43.5444 12.873 43.2994 12.1506 42.9219 11.4962C42.5443 10.8417 42.0416 10.2681 41.4423 9.80797C40.8431 9.34785 40.1591 9.01026 39.4293 8.81449C38.6996 8.61871 37.9385 8.56858 37.1894 8.66695C36.4403 8.76533 35.7179 9.01028 35.0635 9.38783L34.2106 9.88042C32.5997 8.50409 30.7485 7.43714 28.75 6.73325V5.75C28.75 4.22501 28.1442 2.76247 27.0659 1.68414C25.9876 0.605802 24.525 0 23 0C21.475 0 20.0125 0.605802 18.9342 1.68414C17.8558 2.76247 17.25 4.22501 17.25 5.75V6.73325C15.2517 7.43967 13.4011 8.50923 11.7914 9.88808L10.9346 9.39167C9.61294 8.62917 8.04251 8.42293 6.56879 8.81832C5.09506 9.21371 3.83877 10.1783 3.07627 11.5C2.31377 12.8217 2.10753 14.3921 2.50292 15.8658C2.89831 17.3395 3.86294 18.5958 5.1846 19.3583L6.0356 19.849C5.65248 21.9335 5.65248 24.0703 6.0356 26.1548L5.1846 26.6455C3.86294 27.408 2.89831 28.6643 2.50292 30.138C2.10753 31.6117 2.31377 33.1822 3.07627 34.5038C3.83877 35.8255 5.09506 36.7901 6.56879 37.1855C8.04251 37.5809 9.61294 37.3747 10.9346 36.6122L11.7875 36.1196C13.399 37.4961 15.2509 38.5631 17.25 39.2667V40.25C17.25 41.775 17.8558 43.2375 18.9342 44.3159C20.0125 45.3942 21.475 46 23 46C24.525 46 25.9876 45.3942 27.0659 44.3159C28.1442 43.2375 28.75 41.775 28.75 40.25V39.2667C30.7484 38.5603 32.599 37.4908 34.2087 36.1119L35.0654 36.6064C36.3871 37.3689 37.9575 37.5752 39.4313 37.1798C40.905 36.7844 42.1613 35.8197 42.9238 34.4981C43.6863 33.1764 43.8925 31.606 43.4971 30.1323C43.1017 28.6585 42.1371 27.4022 40.8154 26.6397L40.8135 26.6417ZM35.9299 19.4043C36.5789 21.7562 36.5789 24.24 35.9299 26.5918C35.8165 27.0012 35.8424 27.4366 36.0033 27.8296C36.1643 28.2227 36.4513 28.5512 36.8192 28.7634L38.8969 29.9632C39.3373 30.2174 39.6588 30.6361 39.7905 31.1273C39.9223 31.6185 39.8535 32.1419 39.5993 32.5824C39.3451 33.0228 38.9264 33.3443 38.4352 33.476C37.9441 33.6078 37.4207 33.539 36.9802 33.2848L34.8987 32.0812C34.5305 31.8679 34.1018 31.7832 33.6802 31.8405C33.2585 31.8978 32.8679 32.0937 32.5699 32.3974C30.8639 34.139 28.7147 35.3816 26.3542 35.9912C25.9422 36.0971 25.5771 36.3371 25.3165 36.6733C25.0559 37.0096 24.9146 37.423 24.9148 37.8484V40.25C24.9148 40.7583 24.7128 41.2458 24.3534 41.6053C23.9939 41.9647 23.5064 42.1667 22.9981 42.1667C22.4898 42.1667 22.0023 41.9647 21.6428 41.6053C21.2834 41.2458 21.0814 40.7583 21.0814 40.25V37.8503C21.0816 37.4249 20.9403 37.0115 20.6797 36.6753C20.4191 36.339 20.054 36.099 19.642 35.9931C17.2814 35.3811 15.1327 34.1358 13.4282 32.3917C13.1302 32.0879 12.7396 31.892 12.318 31.8347C11.8963 31.7775 11.4676 31.8622 11.0994 32.0754L9.02177 33.2772C8.80371 33.405 8.56252 33.4884 8.31208 33.5227C8.06164 33.5569 7.8069 33.5413 7.56252 33.4767C7.31815 33.4121 7.08897 33.2998 6.88818 33.1462C6.68738 32.9927 6.51895 32.8009 6.39256 32.582C6.26617 32.3631 6.18433 32.1214 6.15175 31.8707C6.11917 31.6201 6.13649 31.3654 6.20272 31.1215C6.26895 30.8776 6.38277 30.6491 6.53764 30.4494C6.69251 30.2496 6.88537 30.0824 7.1051 29.9575L9.18277 28.7577C9.55067 28.5454 9.83765 28.2169 9.99862 27.8239C10.1596 27.4308 10.1854 26.9954 10.0721 26.5861C9.42304 24.2342 9.42304 21.7505 10.0721 19.3986C10.1834 18.9901 10.1563 18.5563 9.99508 18.1648C9.83385 17.7733 9.54754 17.4463 9.18085 17.2347L7.10319 16.0348C6.66272 15.7807 6.34126 15.3619 6.20952 14.8708C6.07778 14.3796 6.14656 13.8562 6.40073 13.4157C6.6549 12.9752 7.07363 12.6538 7.56481 12.522C8.05599 12.3903 8.57938 12.4591 9.01985 12.7132L11.1014 13.9169C11.4685 14.1307 11.8964 14.2163 12.3175 14.1605C12.7387 14.1046 13.1294 13.9104 13.4282 13.6083C15.1342 11.8667 17.2834 10.6241 19.6439 10.0146C20.0572 9.90833 20.4232 9.66719 20.684 9.32938C20.9447 8.99156 21.0853 8.5764 21.0834 8.14967V5.75C21.0834 5.24167 21.2853 4.75416 21.6447 4.39471C22.0042 4.03527 22.4917 3.83333 23 3.83333C23.5084 3.83333 23.9959 4.03527 24.3553 4.39471C24.7148 4.75416 24.9167 5.24167 24.9167 5.75V8.14967C24.9165 8.57508 25.0578 8.98848 25.3184 9.32474C25.579 9.66099 25.9441 9.90099 26.3561 10.0069C28.7175 10.6186 30.8668 11.8639 32.5719 13.6083C32.8698 13.9121 33.2604 14.108 33.6821 14.1653C34.1037 14.2225 34.5324 14.1378 34.9006 13.9246L36.9783 12.7228C37.1963 12.595 37.4375 12.5116 37.688 12.4773C37.9384 12.4431 38.1931 12.4587 38.4375 12.5233C38.6819 12.5879 38.9111 12.7002 39.1119 12.8538C39.3127 13.0073 39.4811 13.1991 39.6075 13.418C39.7339 13.6369 39.8157 13.8786 39.8483 14.1293C39.8809 14.3799 39.8636 14.6346 39.7973 14.8785C39.7311 15.1224 39.6173 15.3509 39.4624 15.5506C39.3075 15.7504 39.1147 15.9176 38.8949 16.0425L36.8173 17.2423C36.4513 17.4545 36.1658 17.7818 36.0053 18.1732C35.8447 18.5647 35.8182 18.9982 35.9299 19.4062V19.4043Z" fill="#10133B"/>
</svg>
