<svg width="46" height="46" viewBox="0 0 46 46" fill="none" xmlns="http://www.w3.org/2000/svg">
<g clip-path="url(#clip0_666_28)">
<path d="M34.4598 24.9627C32.3151 22.8237 29.0682 22.4365 26.5248 23.7993L17.2635 14.538V8.62312C17.2635 6.68153 16.2189 4.87412 14.538 3.90428L8.82439 0.609534C7.03998 -0.421633 4.77639 -0.120716 3.31589 1.33595L1.35131 3.30437C-0.107273 4.75912 -0.404356 7.02462 0.624894 8.80903L3.91964 14.5226C4.88948 16.2055 6.69881 17.25 8.63848 17.25H14.5533L23.8031 26.4999C23.2703 27.4735 22.9866 28.5679 22.9866 29.7084C22.9866 31.5024 23.6862 33.1852 24.957 34.454L34.5671 44.0374C35.8283 45.2947 37.5456 46 39.3205 46C41.2084 46 43.3225 45.0015 44.53 43.5295C46.6881 40.8998 46.4006 36.869 43.8764 34.3544L34.4598 24.9627ZM7.23931 12.6098L3.94456 6.89428C3.77973 6.61062 3.82764 6.24837 4.06148 6.01453L6.02606 4.04803C6.25989 3.81612 6.62214 3.76628 6.90773 3.93112L12.6194 7.22778C13.1177 7.51528 13.4282 8.05195 13.4282 8.62503V13.4167H8.63656C8.06156 13.4167 7.52681 13.1081 7.23931 12.6098ZM41.5668 41.0972C41.0378 41.7431 40.2903 42.1207 39.4642 42.1629C38.6573 42.2012 37.8523 41.8965 37.2754 41.3234L27.6652 31.74C27.1209 31.1976 26.8219 30.4769 26.8219 29.7084C26.8219 28.9398 27.1228 28.221 27.6652 27.6767C28.2287 27.1151 28.9705 26.8334 29.7103 26.8334C30.4501 26.8334 31.19 27.1151 31.7535 27.6767L41.172 37.0665C42.3143 38.2069 42.4868 39.9759 41.5668 41.0972ZM20.0043 32.7731C20.7518 33.5245 20.7499 34.7358 20.0005 35.4833L11.4196 44.0354C10.1584 45.2928 8.44298 45.9981 6.66623 45.9981C4.97764 45.9981 2.66423 44.9995 1.45673 43.5256C-0.699523 40.8979 -0.41394 36.8671 2.11223 34.3525L12.9759 23.5137C13.7234 22.7662 14.9386 22.7662 15.6861 23.5175C16.4336 24.267 16.4316 25.4802 15.6822 26.2277L4.81664 37.0665C3.67431 38.2069 3.49798 39.976 4.41798 41.0953C4.94889 41.7431 5.69639 42.1207 6.52248 42.1629C7.33898 42.1993 8.13439 41.8965 8.71131 41.3234L17.2941 32.7712C18.0436 32.0237 19.2549 32.0237 20.0062 32.775L20.0043 32.7731ZM18.9616 8.88187C20.725 4.39112 24.7576 1.07337 29.4861 0.224284C31.1401 -0.0708826 32.8019 -0.0766326 34.4291 0.212784C35.7056 0.438951 36.7349 1.33978 37.1163 2.55878C37.5552 3.95603 37.1163 5.4932 35.9433 6.67003L31.4679 10.9672C30.5383 11.8968 30.3869 13.3841 31.1516 14.3195C31.5925 14.858 32.2116 15.1724 32.8977 15.2088C33.5666 15.2414 34.2279 14.9941 34.7128 14.5092L39.723 9.67728C40.6545 8.74578 42.0479 8.39887 43.3512 8.81478C44.6239 9.21537 45.5573 10.2753 45.7892 11.5767C46.0767 13.202 46.0729 14.8676 45.7777 16.5236C45.2391 19.5366 43.6694 22.3426 41.3579 24.426C40.9918 24.7557 40.5318 24.9186 40.0756 24.9186C39.5524 24.9186 39.0291 24.7059 38.6516 24.2861C37.9424 23.5003 38.0056 22.287 38.7915 21.5779C40.4724 20.0637 41.6128 18.0282 42.0038 15.8509C42.1916 14.8005 42.2185 13.7521 42.0862 12.7229L37.4 17.2443C36.1829 18.4652 34.4675 19.1303 32.708 19.0383C30.9523 18.9501 29.304 18.1164 28.1846 16.7479C26.1875 14.306 26.452 10.5647 28.7865 8.23212L33.26 3.93495L33.2772 3.9177C32.2518 3.78737 31.2053 3.8142 30.1626 4.00203C26.7356 4.61537 23.8127 7.02462 22.5305 10.2868C22.1452 11.272 21.0316 11.7569 20.0465 11.3697C19.0613 10.9825 18.5745 9.87087 18.9636 8.8857L18.9616 8.88187Z" fill="white"/>
</g>
<defs>
<clipPath id="clip0_666_28">
<rect width="46" height="46" fill="white"/>
</clipPath>
</defs>
</svg>
