<svg width="46" height="46" viewBox="0 0 46 46" fill="none" xmlns="http://www.w3.org/2000/svg">
<g clip-path="url(#clip0_336_430)">
<path d="M34.4597 24.9627C32.3149 22.8237 29.0681 22.4365 26.5247 23.7993L17.2634 14.538V8.62312C17.2634 6.68153 16.2188 4.87412 14.5379 3.90428L8.82427 0.609534C7.03986 -0.421633 4.77627 -0.120716 3.31577 1.33595L1.35119 3.30437C-0.107395 4.75912 -0.404478 7.02462 0.624772 8.80903L3.91952 14.5226C4.88936 16.2055 6.69869 17.25 8.63836 17.25H14.5532L23.803 26.4999C23.2702 27.4735 22.9865 28.5679 22.9865 29.7084C22.9865 31.5024 23.6861 33.1852 24.9569 34.454L34.567 44.0374C35.8282 45.2947 37.5455 46 39.3204 46C41.2083 46 43.3224 45.0015 44.5299 43.5295C46.688 40.8998 46.4005 36.869 43.8763 34.3544L34.4597 24.9627ZM7.23919 12.6098L3.94444 6.89428C3.77961 6.61062 3.82752 6.24837 4.06135 6.01453L6.02594 4.04803C6.25977 3.81612 6.62202 3.76628 6.90761 3.93112L12.6193 7.22778C13.1176 7.51528 13.4281 8.05195 13.4281 8.62503V13.4167H8.63644C8.06144 13.4167 7.52669 13.1081 7.23919 12.6098ZM41.5667 41.0972C41.0377 41.7431 40.2902 42.1207 39.4641 42.1629C38.6572 42.2012 37.8522 41.8965 37.2753 41.3234L27.6651 31.74C27.1208 31.1976 26.8218 30.4769 26.8218 29.7084C26.8218 28.9398 27.1227 28.221 27.6651 27.6767C28.2286 27.1151 28.9704 26.8334 29.7102 26.8334C30.45 26.8334 31.1899 27.1151 31.7534 27.6767L41.1719 37.0665C42.3142 38.2069 42.4867 39.9759 41.5667 41.0972ZM20.0042 32.7731C20.7517 33.5245 20.7498 34.7358 20.0004 35.4833L11.4194 44.0354C10.1583 45.2928 8.44285 45.9981 6.6661 45.9981C4.97752 45.9981 2.6641 44.9995 1.4566 43.5256C-0.699645 40.8979 -0.414062 36.8671 2.11211 34.3525L12.9758 23.5137C13.7233 22.7662 14.9384 22.7662 15.6859 23.5175C16.4334 24.267 16.4315 25.4802 15.6821 26.2277L4.81652 37.0665C3.67419 38.2069 3.49785 39.976 4.41786 41.0953C4.94877 41.7431 5.69627 42.1207 6.52236 42.1629C7.33886 42.1993 8.13427 41.8965 8.71119 41.3234L17.294 32.7712C18.0434 32.0237 19.2548 32.0237 20.0061 32.775L20.0042 32.7731ZM18.9615 8.88187C20.7249 4.39112 24.7575 1.07337 29.4859 0.224284C31.14 -0.0708826 32.8018 -0.0766326 34.429 0.212784C35.7055 0.438951 36.7348 1.33978 37.1162 2.55878C37.5551 3.95603 37.1162 5.4932 35.9432 6.67003L31.4678 10.9672C30.5382 11.8968 30.3868 13.3841 31.1515 14.3195C31.5924 14.858 32.2114 15.1724 32.8976 15.2088C33.5665 15.2414 34.2278 14.9941 34.7127 14.5092L39.7229 9.67728C40.6544 8.74578 42.0478 8.39887 43.3511 8.81478C44.6238 9.21537 45.5572 10.2753 45.7891 11.5767C46.0766 13.202 46.0728 14.8676 45.7776 16.5236C45.239 19.5366 43.6693 22.3426 41.3578 24.426C40.9917 24.7557 40.5317 24.9186 40.0755 24.9186C39.5523 24.9186 39.029 24.7059 38.6514 24.2861C37.9423 23.5003 38.0055 22.287 38.7914 21.5779C40.4723 20.0637 41.6127 18.0282 42.0037 15.8509C42.1915 14.8005 42.2184 13.7521 42.0861 12.7229L37.3999 17.2443C36.1828 18.4652 34.4674 19.1303 32.7079 19.0383C30.9522 18.9501 29.3039 18.1164 28.1845 16.7479C26.1874 14.306 26.4519 10.5647 28.7864 8.23212L33.2599 3.93495L33.2771 3.9177C32.2517 3.78737 31.2052 3.8142 30.1625 4.00203C26.7355 4.61537 23.8126 7.02462 22.5304 10.2868C22.1451 11.272 21.0315 11.7569 20.0464 11.3697C19.0612 10.9825 18.5744 9.87087 18.9634 8.8857L18.9615 8.88187Z" fill="#10133B"/>
</g>
<defs>
<clipPath id="clip0_336_430">
<rect width="46" height="46" fill="white"/>
</clipPath>
</defs>
</svg>
