<svg width="223" height="200" viewBox="0 0 223 200" fill="none" xmlns="http://www.w3.org/2000/svg">
<path d="M166.796 70.6412C166.796 76.1332 164.36 81.4001 160.023 85.2835C155.686 89.1669 149.804 91.3485 143.671 91.3485C137.538 91.3485 131.656 89.1669 127.319 85.2835C122.982 81.4001 120.546 76.1332 120.546 70.6412C120.546 65.1493 122.982 59.8823 127.319 55.999C131.656 52.1156 137.538 49.9339 143.671 49.9339C149.804 49.9339 155.686 52.1156 160.023 55.999C164.36 59.8823 166.796 65.1493 166.796 70.6412ZM166.741 127.512C166.232 140.672 162.563 153.58 155.983 165.356C149.92 175.624 140.816 184.197 129.67 190.137C118.523 196.076 105.766 199.152 92.796 199.027H83.546V153.47C83.5047 145.793 80.0805 138.441 74.0179 133.012C67.9554 127.583 59.7446 124.517 51.171 124.48H0.296V116.197C0.155971 104.584 3.59079 93.1597 10.2237 83.1789C16.8565 73.1981 26.4312 65.0459 37.8973 59.6167C51.0486 53.7242 65.4635 50.4386 80.1605 49.9836C93.6363 34.3972 110.942 21.8012 130.735 13.1737C150.528 4.54622 172.274 0.119222 194.287 0.236398C197.95 0.215672 201.581 0.842566 204.973 2.08114C208.365 3.31971 211.45 5.14559 214.052 7.4541C216.654 9.76261 218.722 12.5083 220.137 15.5339C221.551 18.5594 222.285 21.8052 222.296 25.0852C222.453 44.8334 217.522 64.3481 207.887 82.1124C198.251 99.8768 184.171 115.412 166.741 127.512ZM19.573 107.914H40.4965C47.366 94.2143 55.4356 81.0226 64.6298 68.4628C58.2437 69.7932 52.0556 71.795 46.1945 74.4265C39.1454 77.7597 33.066 82.5247 28.4431 88.3399C23.8203 94.1551 20.7825 100.859 19.573 107.914ZM146.104 141.419C132.078 149.652 117.346 156.878 102.046 163.029V181.765C109.925 180.682 117.412 177.962 123.906 173.822C130.4 169.683 135.721 164.239 139.444 157.927C142.383 152.678 144.618 147.137 146.104 141.419ZM203.796 24.8532C203.729 22.6969 202.724 20.6492 200.997 19.1457C199.269 17.6422 196.955 16.8014 194.546 16.8022C146.816 18.0198 114.534 34.3952 83.3795 73.3083C74.6858 84.5168 67.0409 96.3492 60.5228 108.685C70.623 110.369 79.9171 114.752 87.1818 121.258C94.4466 127.763 99.3416 136.085 101.223 145.13C114.999 139.293 128.212 132.447 140.73 124.662C184.149 96.7325 202.436 67.825 203.796 24.8532ZM56.9245 148.327C62.0931 153.003 64.9924 159.316 64.9924 165.895C64.9924 172.474 62.0931 178.787 56.9245 183.463C48.5348 190.967 23.421 195.597 13.0055 197.246L0 199.292L2.28475 187.646C4.13475 178.319 9.29625 155.831 17.6768 148.318C22.9654 143.801 29.9939 141.282 37.3025 141.284C44.6111 141.285 51.6382 143.808 56.9245 148.327ZM46.546 165.895C46.5493 164.807 46.3114 163.729 45.8462 162.724C45.381 161.718 44.6976 160.806 43.8358 160.039C42.1011 158.486 39.7488 157.614 37.296 157.614C34.8432 157.614 32.4909 158.486 30.7563 160.039C27.2296 165.74 24.7527 171.912 23.421 178.319C30.5787 177.122 37.4748 174.901 43.845 171.743C44.7041 170.976 45.3851 170.064 45.8487 169.061C46.3123 168.057 46.5493 166.981 46.546 165.895Z" fill="#10133B"/>
</svg>
