<svg width="11" height="14" viewBox="0 0 11 14" fill="none" xmlns="http://www.w3.org/2000/svg">
<path d="M5.53978 0.308105C2.7929 0.308105 0.307373 2.41378 0.307373 5.67079C0.307373 7.75057 1.90998 10.1969 5.10813 13.0151C5.22898 13.1194 5.38329 13.1768 5.54292 13.1768C5.70254 13.1768 5.85685 13.1194 5.97771 13.0151C9.16958 10.1969 10.7722 7.75057 10.7722 5.67079C10.7722 2.41378 8.28665 0.308105 5.53978 0.308105ZM5.53978 6.84802C4.8201 6.84802 4.23148 6.25941 4.23148 5.53973C4.23148 4.82004 4.8201 4.23143 5.53978 4.23143C6.25946 4.23143 6.84807 4.82004 6.84807 5.53973C6.84807 6.25941 6.25946 6.84802 5.53978 6.84802Z" fill="#0E123B"/>
</svg>
