<svg width="291" height="82" viewBox="0 0 291 82" fill="none" xmlns="http://www.w3.org/2000/svg">
<path d="M290.504 44.9791C289.902 46.7822 288.527 47.4119 286.751 47.4119C281.956 47.4119 277.171 47.4119 272.396 47.4119C272.31 47.4119 272.224 47.3832 272.08 47.3546C272.08 46.3433 272.08 45.3512 272.08 44.378C272.396 44.1777 272.711 44.2636 272.997 44.2636C277.295 44.2636 281.593 44.2636 285.92 44.2636C287.037 44.2636 287.18 44.0918 287.209 42.8898C286.951 42.6894 286.665 42.8039 286.407 42.8039C282.949 42.8039 279.482 42.8039 276.006 42.8039C275.547 42.8039 275.089 42.8039 274.631 42.7753C272.539 42.6322 271.565 41.6877 271.278 39.5983C271.164 38.7397 271.25 37.8811 271.393 37.0511C271.593 35.9635 272.367 35.3624 273.37 35.1048C273.943 34.9522 274.526 34.8759 275.118 34.8759C279.817 34.8759 284.516 34.8759 289.215 34.8759C289.329 34.8759 289.444 34.8759 289.616 34.9045C289.616 35.9348 289.616 36.9366 289.616 38.0242C284.688 38.0242 279.731 38.0242 274.802 38.0242C274.631 39.3121 274.86 39.5983 276.063 39.5983C279.291 39.5983 282.51 39.5983 285.719 39.5983C286.149 39.5983 286.579 39.627 287.009 39.627C288.785 39.6842 290.017 40.457 290.504 42.2315C290.504 43.1473 290.504 44.0632 290.504 44.9791Z" fill="#0E123B"/>
<path d="M182.14 47.7553C180.965 47.1829 180.191 46.2384 179.676 45.0649C178.787 43.1187 177.899 41.1725 177.011 39.2263C176.925 39.0259 176.81 38.8256 176.581 38.6538C176.581 41.5446 176.581 44.4353 176.581 47.3832C175.55 47.3832 174.576 47.3832 173.515 47.3832C173.515 46.7727 173.515 46.1621 173.515 45.5515C173.515 43.1855 173.515 40.829 173.515 38.4821C173.515 37.3945 173.859 36.4214 174.633 35.6773C175.75 34.6183 177.126 34.561 178.3 35.5055C179.16 36.2211 179.733 37.1083 180.134 38.11C181.022 40.1994 181.882 42.3173 182.799 44.5498C183.658 42.4891 184.489 40.5428 185.292 38.6252C185.693 37.6521 186.123 36.7076 186.868 35.9635C187.727 35.0476 188.759 34.561 190.019 34.9904C191.337 35.4769 192.054 36.5073 192.082 37.8525C192.168 41.0008 192.111 44.1491 192.111 47.3546C191.137 47.3546 190.163 47.3546 189.131 47.3546C189.131 44.4544 189.131 41.5446 189.131 38.6252C189.074 38.6252 189.016 38.6157 188.959 38.5966C188.291 40.0467 187.622 41.4873 186.953 42.9184C186.552 43.8056 186.123 44.6929 185.721 45.5801C185.292 46.5532 184.633 47.326 183.63 47.7553C183.133 47.7553 182.636 47.7553 182.14 47.7553Z" fill="#0E123B"/>
<path d="M92.2852 47.2974C92.2852 46.3433 92.2852 45.3798 92.2852 44.4066C92.5717 44.1491 92.9155 44.2635 93.2594 44.2635C97.5573 44.2635 101.855 44.2635 106.153 44.2635C107.242 44.2635 107.442 44.0346 107.471 42.8897C107.185 42.718 106.869 42.8039 106.583 42.8039C102.992 42.7848 99.391 42.7848 95.7808 42.8039C95.1218 42.8039 94.4341 42.7753 93.7751 42.5749C92.6004 42.2315 91.8267 41.5159 91.5975 40.2566C91.4829 39.6269 91.4829 39.0259 91.4829 38.4249C91.5116 36.0207 92.5144 34.9617 94.9785 34.9045C96.9842 34.8472 99.0186 34.8759 101.053 34.8759C103.975 34.8759 106.869 34.8759 109.849 34.8759C109.849 35.9348 109.849 36.9652 109.849 38.0528C104.902 38.0528 99.9736 38.0528 95.0645 38.0528C94.8639 39.3407 95.0645 39.5983 96.2966 39.5983C99.6203 39.5983 102.944 39.6556 106.239 39.5983C110.365 39.5125 111.167 41.5159 110.594 45.1508C110.394 46.4387 109.219 47.2974 107.586 47.3832C106.354 47.4405 105.122 47.4119 103.89 47.4119C100.337 47.4309 96.7741 47.4309 93.2021 47.4119C92.9155 47.4119 92.6004 47.4977 92.2852 47.2974Z" fill="#0E123B"/>
<path d="M163.373 34.8759C163.373 35.7917 163.373 36.6217 163.373 37.4518C163.373 37.6235 163.373 37.7952 163.373 37.9383C163.086 38.1959 162.799 38.11 162.542 38.11C158.492 38.11 154.442 38.11 150.393 38.11C149.161 38.11 149.103 38.1673 149.018 39.4838C153.774 39.4838 158.502 39.4838 163.315 39.4838C163.315 40.6001 163.315 41.6304 163.315 42.7466C158.616 42.7466 153.888 42.7466 149.161 42.7466C149.018 43.9773 149.132 44.1204 150.278 44.1204C154.29 44.1204 158.311 44.1204 162.341 44.1204C162.656 44.1204 162.943 44.1204 163.315 44.1204C163.315 45.2367 163.315 46.267 163.315 47.3546C163.057 47.4977 162.771 47.4119 162.513 47.4119C158.349 47.4309 154.175 47.4309 149.992 47.4119C147.241 47.4119 145.78 45.9808 145.751 43.2332C145.732 41.8212 145.732 40.4188 145.751 39.0259C145.808 36.5073 147.442 34.8759 149.934 34.8759C154.376 34.8472 158.817 34.8759 163.373 34.8759Z" fill="#0E123B"/>
<path fill-rule="evenodd" clip-rule="evenodd" d="M268.757 41.0008C270.075 42.9756 269.53 45.2367 270.189 47.3546C268.986 47.3546 267.897 47.3546 266.78 47.3546C266.579 45.8377 266.407 44.3208 266.207 42.8039C262.511 42.8039 258.872 42.8039 255.175 42.8039C255.175 44.3208 255.175 45.8091 255.175 47.3546C254.058 47.3546 252.998 47.3546 251.88 47.3546C251.88 43.2523 251.88 39.1309 251.88 34.9903C252.052 34.79 252.31 34.8759 252.539 34.8759C257.086 34.8759 261.632 34.8759 266.178 34.8759C266.608 34.8759 267.038 34.8759 267.467 34.9331C268.757 35.1334 269.273 35.7345 269.33 37.0224C269.473 39.6842 269.444 39.8845 268.757 41.0008ZM255.175 38.11C255.175 38.6252 255.175 39.0832 255.175 39.5697C258.47 39.5697 261.68 39.5697 264.889 39.5697C266.035 39.5697 266.264 39.3121 266.092 38.11C262.482 38.11 258.872 38.11 255.175 38.11Z" fill="#0E123B"/>
<path fill-rule="evenodd" clip-rule="evenodd" d="M241.422 47.4119C239.789 47.4119 238.156 47.4405 236.523 47.4119C233.944 47.3832 232.511 45.9236 232.483 43.3477C232.463 41.8403 232.463 40.3425 232.483 38.8542C232.511 36.5645 234.144 34.8759 236.408 34.8759C239.77 34.8377 243.122 34.8377 246.465 34.8759C248.585 34.8759 250.018 36.1352 250.19 38.2531C250.362 40.1994 250.333 42.1742 250.19 44.1204C250.047 46.0667 248.729 47.326 246.752 47.3832C244.975 47.4691 243.199 47.4119 241.422 47.4119ZM241.394 44.0918C242.969 44.0918 244.517 44.0918 246.093 44.1204C246.58 44.1204 246.952 43.9773 246.952 43.4049C246.952 41.8975 246.943 40.3997 246.924 38.9114C246.924 38.3962 246.694 38.11 246.15 38.11C242.941 38.11 239.703 38.11 236.494 38.11C236.007 38.11 235.778 38.339 235.778 38.8542C235.797 40.2852 235.797 41.7258 235.778 43.176C235.778 43.8629 236.093 44.1204 236.78 44.1204C238.328 44.0918 239.846 44.0918 241.394 44.0918Z" fill="#0E123B"/>
<path fill-rule="evenodd" clip-rule="evenodd" d="M202.598 47.4119C201.051 47.4119 199.475 47.4405 197.899 47.4119C195.263 47.3832 193.801 45.9522 193.801 43.3191C193.782 41.8499 193.782 40.3806 193.801 38.9114C193.801 36.5073 195.463 34.8759 197.841 34.8759C201.07 34.8568 204.298 34.8472 207.526 34.8472C210.019 34.8759 211.48 36.2497 211.566 38.7397C211.623 40.3997 211.623 42.0597 211.566 43.7198C211.48 46.0094 210.076 47.3832 207.755 47.4119C206.036 47.4405 204.317 47.4119 202.598 47.4119ZM202.684 44.0918C204.231 44.0918 205.807 44.0918 207.383 44.1204C207.87 44.1204 208.271 44.006 208.271 43.4335C208.271 41.9071 208.261 40.3806 208.242 38.8542C208.242 38.3104 207.899 38.11 207.383 38.11C204.231 38.11 201.07 38.11 197.899 38.11C197.354 38.11 197.068 38.3104 197.068 38.9114C197.096 40.3139 197.096 41.7449 197.068 43.1473C197.068 43.8342 197.354 44.1204 198.071 44.1204C199.618 44.0918 201.137 44.0918 202.684 44.0918Z" fill="#0E123B"/>
<path fill-rule="evenodd" clip-rule="evenodd" d="M129.046 47.3832C127.929 47.3832 126.926 47.3832 125.895 47.3832C125.895 46.3243 125.895 45.3225 125.895 44.2349C123.86 44.2349 121.912 44.2349 119.964 44.2349C119.763 44.2349 119.62 44.3208 119.476 44.4639C119.305 44.6356 119.104 44.7787 118.961 44.9791C117.213 47.8126 114.491 47.6408 111.884 47.3546C113.459 45.6946 115.121 43.9487 116.812 42.2315C118.961 40.0849 121.138 37.9669 123.287 35.849C124.376 34.79 125.608 34.4179 127.098 34.8472C128.273 35.2193 129.018 35.9921 129.046 37.2228C129.075 40.6001 129.046 43.9487 129.046 47.3832ZM125.866 38.4821C124.863 39.4266 123.746 40.457 122.686 41.4587C123.698 41.4587 124.758 41.4587 125.866 41.4587C125.866 40.3425 125.866 39.3121 125.866 38.4821Z" fill="#0E123B"/>
<path d="M223.629 38.0814C223.629 41.2583 223.629 44.2635 223.629 47.3546C222.597 47.3546 221.595 47.3546 220.534 47.3546C220.534 44.3494 220.534 41.3156 220.534 38.1959C218.042 38.1959 215.635 38.1959 213.171 38.1959C213.171 37.0511 213.171 35.9921 213.171 34.9045C219.073 34.9045 224.976 34.9045 230.935 34.9045C230.935 35.9635 230.935 36.9938 230.935 38.0814C228.5 38.0814 226.122 38.0814 223.629 38.0814Z" fill="#0E123B"/>
<path d="M144.118 44.0918C144.118 45.2653 144.118 46.2956 144.118 47.4119C143.258 47.4119 142.456 47.4119 141.625 47.4119C139.247 47.4119 136.84 47.4405 134.433 47.4119C131.855 47.3832 130.393 45.9236 130.393 43.3477C130.393 40.5714 130.393 37.7952 130.393 34.9331C131.482 34.9331 132.514 34.9331 133.688 34.9331C133.688 36.3069 133.688 37.7093 133.688 39.1118C133.688 40.457 133.688 41.8022 133.688 43.1473C133.66 43.8342 133.975 44.1205 134.691 44.1205C137.499 44.0918 140.336 44.0918 143.144 44.0918C143.459 44.0918 143.745 44.0918 144.118 44.0918Z" fill="#0E123B"/>
<path fill-rule="evenodd" clip-rule="evenodd" d="M41.3693 70.7094C25.066 70.7094 11.8857 57.5723 11.8857 41.287C11.8857 25.0016 25.066 11.836 41.3693 11.836C57.6727 11.836 70.8529 25.0016 70.8529 41.287C70.8529 57.5723 57.6727 70.7094 41.3693 70.7094ZM52.4865 54.8247C52.2573 54.9106 52.1427 54.9678 52.0568 54.9964C50.5668 55.712 49.0482 56.3989 47.5869 57.143C47.1285 57.372 46.7274 57.6582 46.3549 58.0016C44.779 59.4327 42.9452 60.0337 40.8536 59.7189C36.4697 59.0034 34.0915 54.2237 36.1832 50.3026C36.2691 50.1595 36.3265 49.9591 36.3265 49.7588C36.2978 45.5515 36.2691 41.3442 36.2405 37.1369C36.2405 36.7935 36.2405 36.4786 36.3265 36.1352C36.6703 34.1317 38.2748 32.5576 40.3092 32.1569C42.2289 31.7848 44.2346 32.6434 45.352 34.3034C45.4953 34.561 45.7245 34.79 45.9537 34.9903C49.2966 37.4708 52.6394 39.9609 55.9822 42.4604C56.2687 42.6703 56.5552 42.8802 56.8417 43.0901C57.3288 42.6322 57.7586 42.2315 58.1884 41.8021C58.4176 41.6018 58.5609 41.4015 58.2171 41.1439C57.9879 41.0008 57.7586 40.7718 57.6154 40.6287C57.9879 40.1994 58.2744 39.8559 58.5896 39.4838C58.8474 39.77 59.048 39.9704 59.2199 40.1707C59.4205 40.3997 59.5924 40.3997 59.793 40.1994C60.0508 39.9132 60.3087 39.6269 60.5952 39.3407C60.9964 38.94 61.4262 38.5393 61.856 38.11C61.5312 37.7666 61.2543 37.4804 61.025 37.2514C61.3402 36.8507 61.6554 36.5073 61.9419 36.1352C62.2857 36.4786 62.5436 36.7648 62.8588 37.0511C63.6324 36.2497 64.406 35.4769 65.2083 34.7041C63.7757 33.2445 62.3717 31.7848 60.9391 30.3537C58.5609 27.9782 56.1541 25.6027 53.7759 23.2271C53.4034 22.855 53.3461 22.855 52.9736 23.2271C52.3624 23.8568 51.7416 24.4769 51.1112 25.0875C51.0253 25.1733 50.9106 25.2306 50.796 25.3164C50.4236 24.8299 50.1084 24.4006 49.7359 23.9713C49.6499 23.8282 49.5067 23.7137 49.3348 23.6564C48.2173 23.3416 47.0998 23.5419 45.9251 23.5133C45.9251 24.2575 45.9251 24.973 45.9251 25.7171C45.2088 25.7458 44.4925 25.803 43.7475 25.8316C43.7475 25.0589 43.7475 24.2861 43.7475 23.4847C43.5469 23.4847 43.375 23.4847 43.2317 23.4847C41.9328 23.4847 40.6435 23.4847 39.3636 23.4847C38.7046 23.4847 38.6473 23.5706 38.676 24.2288C38.676 24.7154 38.676 25.1733 38.676 25.6313C37.845 25.6313 37.0714 25.6313 36.2405 25.6313C36.2405 24.8871 36.2405 24.2002 36.2405 23.5133C35.4669 23.5419 34.7792 23.6564 34.0915 23.5992C33.2893 23.5706 32.8881 23.9426 32.6016 24.5723C32.3724 25.0302 32.0859 25.4595 31.742 26.032C30.6819 24.9444 29.679 23.914 28.6762 22.855C24.7508 26.8047 20.8254 30.7544 16.8427 34.7328C17.5876 35.4769 18.2753 36.1924 19.0203 36.8793C19.0776 36.9366 19.3068 36.908 19.3927 36.8507C19.622 36.6504 19.8225 36.3928 19.9944 36.2497C20.3669 36.5645 20.7394 36.8507 21.1119 37.1655C20.7681 37.509 20.4815 37.7952 20.195 38.11C20.7108 38.6252 21.2265 39.1118 21.7423 39.6556C22.4872 40.457 22.4586 40.457 23.2322 39.6842C23.2895 39.6269 23.4901 39.6269 23.576 39.6556C23.6906 39.7414 23.7766 39.8845 23.8625 39.999C23.8052 40.0563 23.7766 40.1421 23.7193 40.1707C22.0765 42.2315 20.4242 44.2826 18.7624 46.3243C17.5017 47.8984 16.2123 49.444 14.9516 51.0181C14.2926 51.8767 14.3785 53.0216 15.0662 53.7657C15.7539 54.5099 16.9573 54.7388 17.7309 54.1092C18.2753 53.6799 18.791 53.6512 19.3927 53.6799C19.7079 53.7085 20.0231 53.7085 20.3096 53.7371C20.6248 53.7943 20.7967 53.6799 20.9973 53.4509C21.7709 52.4778 22.5732 51.5047 23.3468 50.5029C23.4328 50.4171 23.4901 50.3026 23.6047 50.1595C22.8024 50.1022 22.0574 50.045 21.2552 49.9878C21.4271 49.7588 21.5417 49.6157 21.6563 49.4726C23.1462 47.6408 24.6266 45.8091 26.0975 43.9773C26.1834 43.8915 26.3267 43.7484 26.298 43.6625C26.2407 43.3191 26.4986 43.176 26.6705 42.9756C26.7851 42.8325 26.957 42.718 27.1003 42.5749C27.2436 42.8039 27.7307 42.5177 27.788 43.0042C27.8262 43.3095 27.8644 43.6243 27.9026 43.9487C27.8453 43.9296 27.7784 43.9106 27.702 43.8915C27.6447 44.0632 27.5301 44.2063 27.5301 44.378C27.5014 44.5784 27.5301 44.7787 27.5874 44.9791C28.9627 49.8733 30.3667 54.7961 31.7707 59.6903C31.8853 60.091 32.0572 60.1768 32.4297 60.1768C38.2748 60.1577 44.12 60.1577 49.9651 60.1768C50.4236 60.1768 50.7101 60.0337 50.882 59.633C51.3022 58.5264 51.7034 57.4197 52.0854 56.313C52.2573 55.8551 52.3433 55.3685 52.4865 54.8247ZM48.3319 53.7371C48.4179 53.7371 48.4752 53.7371 48.5325 53.7085C50.0606 53.0025 51.5792 52.287 53.0882 51.5619C53.1742 51.5047 53.2888 51.3329 53.3175 51.2184C53.7186 48.8429 54.1197 46.496 54.5495 44.1491C54.6068 43.8342 54.5209 43.6339 54.263 43.4335C51.7416 41.6018 49.2488 39.7414 46.756 37.8811C46.5841 37.7666 46.3835 37.6235 46.1543 37.4804C45.8678 39.2549 45.0369 40.6001 43.461 41.4014C41.9137 42.2028 40.3092 42.0883 38.7333 41.3442C38.7333 43.4908 38.7333 45.5801 38.7333 47.6981C40.9968 46.6105 43.2031 46.6105 45.3234 47.927C47.4437 49.2436 48.3319 51.2757 48.3319 53.7371ZM54.7215 50.2167C54.5495 50.7605 54.4636 51.1898 54.3203 51.5905C54.2057 51.8481 54.263 52.0485 54.4349 52.2774C55.5237 53.6799 56.6125 55.0823 57.6727 56.5133C57.9592 56.914 58.1311 57.4292 58.3317 57.8871C57.5581 57.0285 56.8704 56.1413 56.1827 55.254C55.4951 54.3668 54.8074 53.4795 54.0624 52.4778C53.9192 52.9357 53.8046 53.2505 53.7473 53.594C53.7186 53.7657 53.7473 53.9947 53.8619 54.1378C55.0366 55.712 56.24 57.2861 57.4435 58.8316C58.303 59.9192 59.8216 60.1196 60.9104 59.3468C62.1138 58.4882 62.3717 56.8854 61.4835 55.712C60.5093 54.3668 59.4778 53.0788 58.4749 51.7623C58.3603 51.6192 58.2744 51.476 58.1598 51.3043C60.0222 50.8464 60.1082 50.7891 61.2829 48.986C61.77 49.5871 62.2284 50.1881 62.7728 50.8178C62.0852 50.875 61.5121 50.9036 60.8245 50.9609C61.3402 51.5905 61.856 52.0771 62.1998 52.6781C62.8015 53.7371 63.6611 54.0519 64.8358 53.823C64.9791 53.7943 65.2083 53.8802 65.3516 53.9947C65.896 54.4526 66.4977 54.5671 67.128 54.3381C67.7584 54.1092 68.1309 53.594 68.2168 52.9071C68.2742 52.3919 68.1022 51.934 67.7584 51.5333C66.173 49.5871 64.5971 47.6313 63.0307 45.666C62.5436 45.0936 62.0565 44.4925 61.5694 43.8629C65.2656 42.718 65.0651 38.7683 63.4319 37.4804C61.7414 39.3121 60.0222 41.1439 58.2744 43.0042C58.6182 43.2332 58.9047 43.4049 59.1913 43.6053C59.134 43.8342 59.048 44.0346 59.048 44.2349C59.048 44.4067 59.134 44.607 59.1913 44.8073C59.1149 44.7883 59.0384 44.7692 58.962 44.7501C57.4435 44.4067 56.0395 44.9505 55.2659 46.267C54.5209 47.4691 54.6642 48.986 55.581 50.1022C56.412 51.0753 57.1856 52.1343 58.0452 53.1074C58.6182 53.7371 58.5609 54.4526 58.6182 55.2826C57.3002 53.5654 56.0681 51.934 54.7215 50.2167ZM41.3407 67.2748C44.2441 67.2748 47.1572 67.2748 50.0797 67.2748C50.3949 67.2748 50.5382 67.2176 50.5382 66.8455C50.5191 65.0519 50.5191 63.2584 50.5382 61.4648C50.5382 61.0927 50.4236 61.0068 50.0797 61.0068C44.2728 61.0259 38.4659 61.0259 32.6589 61.0068C32.2864 61.0068 32.2005 61.1213 32.2005 61.4648C32.2291 63.2393 32.2291 65.0138 32.2005 66.7597C32.2005 67.189 32.3437 67.2748 32.7449 67.2748C35.6101 67.2748 38.4754 67.2748 41.3407 67.2748ZM32.0572 21.7102C31.9999 21.7293 31.9426 21.7484 31.8853 21.7674C31.8566 21.653 31.7707 21.5099 31.7707 21.3954C31.742 20.7943 31.7707 20.1933 31.7707 19.5922C31.7707 18.7622 31.742 18.7622 30.9111 18.8195C30.8825 18.8195 30.8251 18.7909 30.7965 18.8195C30.7105 18.8767 30.5673 18.9912 30.5673 19.0484C30.6246 19.9071 30.6246 20.7657 30.8251 21.5671C31.0257 22.483 31.3409 22.6547 32.2864 22.6547C38.017 22.6547 43.7379 22.6547 49.4494 22.6547C50.4235 22.6547 50.8247 22.3971 51.0253 21.4526C51.1685 20.7657 51.1685 20.0502 51.2258 19.3633C51.2831 18.9053 51.1112 18.7909 50.6814 18.7909C47.2145 18.8195 43.7761 18.8195 40.3092 18.8195C39.7075 18.8195 39.7075 18.8195 39.7075 19.4205C39.7075 20.2028 39.7075 20.9756 39.7075 21.7388C39.1058 21.7388 38.59 21.7388 38.0456 21.7388C38.0456 20.8802 38.017 20.0502 38.0456 19.2202C38.0456 18.9053 37.931 18.8195 37.6445 18.7909C37.3006 18.7909 37.2147 18.934 37.2147 19.2488C37.2433 20.0788 37.2147 20.8802 37.2147 21.7388C36.7849 21.7388 36.4124 21.7388 35.9826 21.7388C35.9826 21.5098 35.9826 21.3381 35.9826 21.1664C35.9826 20.5081 35.9826 19.8212 35.9826 19.1629C36.0113 18.7909 35.782 18.8195 35.5528 18.7909C35.2663 18.7909 35.0944 18.8195 35.0944 19.1629C35.123 19.7353 35.0944 20.2791 35.0944 20.8229C35.0944 21.1378 35.0944 21.424 35.0944 21.7674C34.7792 21.7388 34.55 21.7388 34.2635 21.7388C34.2635 20.8516 34.2635 20.0502 34.2921 19.2202C34.2921 18.9053 34.1775 18.7909 33.8337 18.7909C33.4898 18.7909 33.4325 18.934 33.4325 19.2488C33.4612 19.9357 33.4325 20.6226 33.4325 21.3095C33.4325 21.7961 33.4039 21.8247 32.8881 21.6816C32.8881 20.8802 32.8595 20.0788 32.8881 19.2774C32.8881 18.9912 32.8595 18.7909 32.4583 18.7909C32.0859 18.7909 32.0572 18.9912 32.0572 19.2774C32.0859 20.1074 32.0572 20.9088 32.0572 21.7102ZM34.8365 16.215C34.6837 16.215 34.5213 16.215 34.3494 16.215C33.0314 16.215 31.7134 16.215 30.3953 16.215C29.3639 16.215 28.7622 16.816 28.7335 17.875C28.7335 18.3043 28.8195 18.4474 29.2779 18.4474C37.0141 18.4188 44.7503 18.4188 52.4865 18.4188C52.5725 18.4188 52.6871 18.4474 52.7731 18.4188C52.859 18.3902 52.9736 18.3043 53.0023 18.2471C53.1456 17.0736 52.6012 16.215 51.4837 16.215C50.137 16.1863 48.7617 16.215 47.415 16.215C47.2431 16.215 47.0903 16.215 46.9566 16.215C46.756 15.4422 46.5841 15.2991 45.8391 15.2991C42.5345 15.2991 39.2395 15.2991 35.954 15.2991C35.1803 15.2991 35.0084 15.4422 34.8365 16.215ZM53.8905 21.9392C57.8255 25.9652 61.7318 29.953 65.6095 33.9027C65.9819 33.5593 66.2971 33.2445 66.6409 32.9296C66.3544 32.6148 66.0965 32.3286 65.81 32.0424C66.0106 31.842 66.1825 31.6989 66.3544 31.5272C67.1567 30.6972 67.1281 30.2679 66.3258 29.4379C65.5235 28.6079 64.7212 27.8065 63.9189 26.9765C64.1768 26.6903 64.4347 26.4327 64.6639 26.1751C63.6038 25.1161 62.5723 24.0571 61.4835 22.9409C61.2256 23.2557 60.9677 23.5706 60.6812 23.9426C59.7357 22.9695 58.9047 22.0823 58.0452 21.2236C57.5008 20.6798 56.8704 20.6798 56.326 21.2236C56.0968 21.4526 55.8676 21.7102 55.6383 21.9678C55.2945 21.653 55.008 21.3667 54.7501 21.1378C54.4063 21.4526 54.0911 21.7388 53.8905 21.9392ZM17.8455 26.9478C17.0146 27.8351 16.1836 28.6651 15.3814 29.4951C14.665 30.2393 14.665 30.7544 15.3814 31.4413C15.5533 31.6417 15.8112 31.7848 16.0404 31.9565C16.0213 32.0328 16.0117 32.0996 16.0117 32.1569C15.687 32.3858 15.3814 32.6053 15.0948 32.8151C15.496 33.2445 15.8112 33.5593 16.1836 33.9314C20.0804 29.9435 23.9772 25.9652 27.8739 21.9964C27.6734 21.7674 27.3582 21.4526 27.043 21.1092C26.7278 21.3954 26.4413 21.653 26.1548 21.9392C25.9542 21.7388 25.8109 21.5671 25.639 21.3954C24.8654 20.6226 24.3496 20.594 23.6047 21.3667C22.7738 22.1968 21.9715 23.0268 21.0546 23.9713C20.7394 23.5992 20.4815 23.2844 20.2523 22.9981C19.1922 24.0571 18.1607 25.1161 17.1005 26.1751C17.3584 26.4327 17.6163 26.6903 17.8455 26.9478ZM24.8654 57.8585C24.8272 57.8394 24.789 57.8204 24.7508 57.8013C24.9514 57.372 25.1233 56.8854 25.3811 56.5133C26.4413 55.0823 27.5301 53.6799 28.5902 52.2774C28.6762 52.1629 28.8195 52.0198 28.7908 51.9054C28.6762 51.3616 28.5043 50.8464 28.3324 50.2167C26.9857 51.934 25.7536 53.5654 24.4356 55.2826C24.4929 54.3954 24.4929 53.6799 25.0373 53.0502C26.0115 51.9054 26.8711 50.6747 27.788 49.4726C27.8739 49.3581 28.0172 49.1864 27.9885 49.0433C27.9026 48.6712 27.7593 48.2705 27.616 47.7553C27.5014 47.927 27.4441 48.0129 27.3868 48.0988C25.4384 50.6174 23.5187 53.1074 21.599 55.6547C20.7108 56.8282 20.9113 58.4309 22.0574 59.2896C23.2322 60.1768 24.7794 59.9192 25.6963 58.7172C26.7851 57.3052 27.8644 55.8932 28.9341 54.4813C29.3925 53.8802 29.3925 53.2505 28.9054 52.5923C27.5492 54.3477 26.2025 56.1031 24.8654 57.8585ZM44.5211 53.3364C44.5211 51.8767 43.3463 50.7033 41.8851 50.7033C40.4238 50.7033 39.249 51.8767 39.249 53.3364C39.249 54.7961 40.4238 55.9695 41.8851 55.9695C43.3463 55.9695 44.5211 54.7961 44.5211 53.3364ZM41.9424 48.9574C41.8564 48.9288 41.7991 48.9288 41.7705 48.9288C39.5355 48.9002 37.6445 50.7033 37.4152 53.0216C37.2147 55.1968 38.8479 57.3147 40.9682 57.7154C41.9997 57.8871 42.1143 57.7727 41.9424 56.7137C41.9233 56.6946 41.9137 56.6851 41.9137 56.6851C39.7934 56.2844 38.676 55.2254 38.59 53.5654C38.5614 52.7926 38.7619 52.0771 39.1917 51.4474C39.8507 50.5316 40.8249 50.1022 41.9424 50.045C41.9424 49.6729 41.9424 49.3295 41.9424 48.9574ZM42.9452 37.0224C42.9452 36.0493 42.1716 35.2479 41.1974 35.2479C40.2232 35.2479 39.4496 36.0493 39.4496 37.0224C39.4496 37.9956 40.2232 38.7683 41.1974 38.7683C42.1716 38.7683 42.9452 37.9956 42.9452 37.0224ZM41.1974 33.2158C40.9109 33.2445 40.653 33.2731 40.3951 33.3303C38.6187 33.6452 37.3006 35.3624 37.3866 37.2228C37.5012 39.0831 39.0198 40.6859 40.8249 40.8004C41.0541 40.8004 41.2547 40.829 41.2261 40.5142C41.2261 40.2566 41.312 39.999 40.8822 39.9704C39.4209 39.8273 38.3035 38.5966 38.2462 37.1655C38.1602 35.6486 39.1917 34.3893 40.653 34.1031C40.844 34.0649 41.0255 34.0363 41.1974 34.0172C41.1974 33.731 41.1974 33.502 41.1974 33.2158ZM56.8704 59.1179C56.5552 58.7458 56.2973 58.4023 56.0681 58.0875C55.4378 57.3147 54.8361 56.5133 54.2057 55.7692C54.0911 55.6261 53.8619 55.5402 53.69 55.5402C53.604 55.5402 53.4894 55.7692 53.4321 55.8837C53.3461 56.1413 53.2888 56.3989 53.2315 56.6564C53.0023 57.4578 52.8017 58.2878 52.6012 59.1179C54.0051 59.1179 55.3805 59.1179 56.8704 59.1179ZM30.1661 59.1179C29.8796 58.0303 29.5931 56.9713 29.3066 55.9409C29.2779 55.7978 29.1346 55.5402 29.0487 55.5402C28.8768 55.5688 28.6189 55.6547 28.5043 55.7978C27.702 56.7995 26.8997 57.8299 26.0975 58.8603C26.0401 58.9175 26.0115 59.0034 25.9255 59.1179C27.3582 59.1179 28.7335 59.1179 30.1661 59.1179Z" fill="#0E123B"/>
<path d="M68.5607 71.5108C55.9535 82.9878 35.6102 86.1361 18.963 75.2029C2.51635 64.4128 -3.9878 43.176 4.14956 24.8585C12.4302 6.22624 32.0286 -2.18834 49.4494 1.44653C69.7928 5.71106 80.4516 22.6261 81.7696 36.7076C81.5977 36.6217 81.4258 36.5359 81.2825 36.45C80.3656 35.9348 79.4487 35.4197 78.5605 34.8759C78.3886 34.7614 78.2167 34.5324 78.188 34.3607C77.5576 31.2982 76.6694 28.3503 75.3514 25.5168C72.3333 19.1057 67.8635 13.9444 61.942 10.0328C57.8542 7.32337 53.3939 5.50117 48.5612 4.56622C45.438 3.96518 42.2576 3.67897 39.0771 3.93656C26.9284 4.93829 17.2438 10.3763 10.3099 20.4509C7.2727 24.8299 5.38162 29.6955 4.46474 34.9617C3.92034 38.1387 3.74842 41.287 4.0636 44.4925C4.83722 52.9643 8.07497 60.3772 13.8342 66.6452C17.8742 71.0528 22.7451 74.2584 28.3611 76.3763C31.1404 77.4353 34.0343 78.0936 36.9855 78.437C39.7361 78.7805 42.5155 78.8091 45.2661 78.4943C52.7445 77.6643 59.4492 74.888 65.2657 70.1083C65.5235 69.8794 65.6954 69.8794 65.982 70.0225C66.8129 70.5376 67.6725 71.0242 68.5607 71.5108Z" fill="#0E123B"/>
<path d="M7.21531 36.1924C8.01759 36.9938 8.79121 37.738 9.53618 38.5107C9.62214 38.5966 9.65079 38.7969 9.62214 38.9114C9.221 45.0077 10.3385 50.7891 13.261 56.1413C17.473 63.9548 23.8625 69.1925 32.401 71.7683C36.6416 73.0563 40.9395 73.4284 45.3233 72.8273C55.3231 71.4249 63.0307 66.4448 68.446 57.973C70.9388 54.0519 72.4574 49.7302 72.9731 45.0936C73.9473 36.1638 71.6551 28.0927 65.9532 21.1378C61.0536 15.1274 54.6928 11.4353 47.0711 10.0042C40.5383 8.80213 34.2348 9.66076 28.1604 12.3511C27.8739 12.4942 27.702 12.4942 27.4727 12.2367C26.9283 11.6642 26.3266 11.0918 25.7822 10.5194C36.2978 4.88105 52.9449 4.6807 65.2656 16.3295C77.4716 27.8923 79.4486 46.7822 69.9073 60.7493C60.366 74.7163 42.0856 79.7822 26.7564 72.5697C10.9402 65.1283 5.09502 48.9288 7.21531 36.1924Z" fill="#0E123B"/>
<path d="M51.9995 28.8082C53.0024 27.8065 54.0625 26.7761 55.0653 25.7744C57.3002 28.0068 59.5638 30.2965 61.8274 32.5576C60.8532 33.5307 59.793 34.561 58.7329 35.5914C56.5266 33.359 54.2631 31.0693 51.9995 28.8082Z" fill="#0E123B"/>
<path d="M23.2035 35.5914C22.2007 34.5897 21.1692 33.5593 20.1377 32.5289C22.4108 30.2583 24.6744 27.9973 26.9284 25.7458C27.9599 26.7475 28.9914 27.8065 29.9942 28.8082C27.7593 31.0406 25.4957 33.3017 23.2035 35.5914Z" fill="#0E123B"/>
<path fill-rule="evenodd" clip-rule="evenodd" d="M32.4585 44.8932C31.427 44.8932 30.5674 44.0632 30.5674 43.0329C30.5674 41.9739 31.427 41.1439 32.4585 41.1439C33.49 41.1439 34.3209 41.9739 34.3209 43.0329C34.3209 44.0632 33.49 44.8932 32.4585 44.8932Z" fill="#0E123B"/>
<path d="M23.7767 41.6877C23.9486 41.8308 24.0919 42.0025 24.2925 42.1742C21.9716 45.0363 19.6794 47.8698 17.3872 50.7033C17.3299 49.816 17.4445 49.5012 17.9602 48.8715C19.794 46.6009 21.6182 44.3399 23.4329 42.0883C23.5475 41.9452 23.6335 41.8308 23.7767 41.6877Z" fill="#0E123B"/>
<path fill-rule="evenodd" clip-rule="evenodd" d="M48.2173 33.3303C47.4723 33.3303 46.8706 32.7007 46.8706 31.9565C46.8706 31.2124 47.4723 30.6113 48.2173 30.6113C48.9909 30.6113 49.5926 31.2124 49.5926 31.9565C49.5926 32.7007 48.9909 33.3303 48.2173 33.3303Z" fill="#0E123B"/>
<path d="M17.5876 52.9071C17.7596 52.1057 18.218 51.6192 18.6478 51.104C20.8063 48.4327 22.9552 45.7709 25.0946 43.1187C25.4671 43.2332 25.2952 43.4049 25.1806 43.548C24.4356 44.483 23.6907 45.4084 22.9457 46.3243C21.2456 48.4231 19.536 50.5316 17.8169 52.6495C17.7596 52.7067 17.7023 52.7926 17.5876 52.9071Z" fill="#0E123B"/>
<path fill-rule="evenodd" clip-rule="evenodd" d="M58.0739 49.6157C57.1856 49.6157 56.4407 48.8715 56.4407 47.9557C56.4407 47.0398 57.1856 46.2957 58.0739 46.2957C58.9908 46.2957 59.7071 47.0398 59.7071 47.9557C59.7071 48.8715 58.9908 49.6157 58.0739 49.6157Z" fill="#0E123B"/>
<path d="M65.8387 51.333C63.833 48.8429 61.8273 46.3529 59.793 43.8342C60.3087 43.8056 60.6239 43.9773 60.9391 44.3494C62.4863 46.2956 64.0622 48.1846 65.5808 50.1309C65.81 50.4171 65.8673 50.875 66.0106 51.2757C65.9533 51.2948 65.896 51.3139 65.8387 51.333Z" fill="#0E123B"/>
<path d="M61.455 47.4977C62.8876 49.3009 64.4348 51.0754 65.8102 52.9644C65.7529 53.0025 65.686 53.0407 65.6096 53.0788C64.2056 51.2471 62.6584 49.4726 61.2544 47.6408C61.3117 47.5836 61.3786 47.5359 61.455 47.4977Z" fill="#0E123B"/>
<path d="M38.5613 64.6131C38.5613 65.0997 38.5613 65.5862 38.5613 66.0728C37.0713 66.0728 35.6101 66.0728 34.1201 66.0728C34.1201 65.5862 34.1201 65.1283 34.1201 64.6131C35.6101 64.6131 37.0713 64.6131 38.5613 64.6131Z" fill="#0E123B"/>
<path d="M44.2061 64.6131C45.696 64.6131 47.1286 64.6131 48.6186 64.6131C48.6186 65.0997 48.6186 65.5576 48.6186 66.0728C47.1573 66.0728 45.696 66.0728 44.2061 66.0728C44.2061 65.5862 44.2061 65.1283 44.2061 64.6131Z" fill="#0E123B"/>
<path d="M57.2715 21.8247C57.5867 21.6243 57.8732 21.6816 58.303 22.0823C59.3727 23.1317 60.4424 24.1907 61.5121 25.2592C62.8874 26.633 64.2723 28.0068 65.6667 29.3806C66.0965 29.8099 66.1251 30.1248 65.7813 30.6686C65.8959 30.0389 65.5521 29.7241 65.2083 29.3806C62.8587 27.0337 60.4806 24.6868 58.1024 22.3399C57.8732 22.1109 57.5294 21.9678 57.2715 21.8247Z" fill="#0E123B"/>
<path d="M15.8685 30.4682C15.6679 30.0962 15.6965 29.7813 16.1263 29.352C17.4061 28.0927 18.686 26.8238 19.9658 25.5454C21.131 24.4006 22.2962 23.2462 23.4614 22.0823C23.8912 21.6816 24.1777 21.6243 24.4929 21.7961C24.2064 21.9964 23.8339 22.1968 23.5474 22.4543C21.1405 24.8203 18.7433 27.2054 16.3556 29.6096C16.1263 29.8386 16.0117 30.2106 15.8685 30.4682Z" fill="#0E123B"/>
</svg>
