<svg width="222" height="216" viewBox="0 0 222 216" fill="none" xmlns="http://www.w3.org/2000/svg">
<path d="M221.954 203.238L164.132 146.979C177.193 131.454 185.055 111.636 185.055 90.063C185.055 40.428 143.56 0.0540161 92.5554 0.0540161C41.5509 0.0540161 0.0554199 40.428 0.0554199 90.054C0.0554199 139.68 41.5509 180.054 92.5554 180.054C114.737 180.054 135.105 172.404 151.052 159.696L208.874 215.955L221.954 203.229V203.238ZM92.5554 162.054C51.7537 162.054 18.5554 129.753 18.5554 90.054C18.5554 50.355 51.7537 18.054 92.5554 18.054C133.357 18.054 166.555 50.355 166.555 90.054C166.555 129.753 133.357 162.054 92.5554 162.054ZM83.2499 117H101.75V135H83.2499V117ZM120.25 72C120.25 82.125 114.506 91.314 105.256 95.985C103.156 97.047 101.75 99.81 101.75 102.87V108.009H83.2499V102.87C83.2499 92.97 88.4207 84.213 96.7364 80.01C99.8352 78.453 101.75 75.384 101.75 72.009C101.75 67.05 97.6059 63.009 92.4999 63.009C87.3939 63.009 83.2499 67.05 83.2499 72.009H64.7499C64.7499 57.123 77.2004 45.009 92.4999 45.009C107.799 45.009 120.25 57.123 120.25 72.009V72Z" fill="#10133B"/>
</svg>
