<svg width="46" height="46" viewBox="0 0 46 46" fill="none" xmlns="http://www.w3.org/2000/svg">
<g clip-path="url(#clip0_336_435)">
<path d="M42.5693 1.79975C41.8697 0.67275 40.6583 0 39.332 0H33.5648C30.6246 0 27.9892 1.63683 26.6897 4.27417L23.1228 11.5057C23.0825 11.5057 23.0423 11.5 23.002 11.5C22.9752 11.5 22.9503 11.5038 22.9234 11.5038L19.3565 4.27417C18.0551 1.63683 15.4216 0 12.4814 0H6.71418C5.38785 0 4.17651 0.67275 3.47501 1.79975C2.77543 2.92675 2.70835 4.31058 3.29485 5.50083L9.48951 18.0608C7.15693 21.0028 5.75201 24.7135 5.75201 28.7519C5.75201 38.2624 13.4915 46.0019 23.002 46.0019C32.5125 46.0019 40.252 38.2624 40.252 28.7519C40.252 24.7288 38.8567 21.0335 36.5394 18.0952L42.7513 5.50275C43.3398 4.3125 43.2708 2.92867 42.5712 1.80167L42.5693 1.79975ZM12.4795 3.83333C13.9496 3.83333 15.2663 4.65175 15.9161 5.97042L18.8965 12.0137C16.4738 12.6078 14.2505 13.708 12.3492 15.2068L6.71226 3.83333H12.4795ZM23.0001 42.1667C15.6018 42.1667 9.58343 36.1483 9.58343 28.75C9.58343 21.735 14.998 15.9697 21.8673 15.3908C21.8693 15.3908 21.8712 15.3908 21.875 15.3908C22.2468 15.3602 22.6225 15.3333 23.002 15.3333C30.4003 15.3333 36.4187 21.3517 36.4187 28.75C36.4187 36.1483 30.4003 42.1667 23.002 42.1667H23.0001ZM33.6759 15.2279C31.7784 13.7253 29.5589 12.6232 27.1401 12.0232L30.1263 5.97042C30.776 4.65175 32.0928 3.83333 33.5628 3.83333L39.3128 3.80458L33.6759 15.2279ZM30.9677 27.6192C30.9677 28.3111 30.4866 28.8937 29.9346 29.2004L27.0788 30.7874L28.3457 34.2432C28.591 34.9121 28.3687 35.6634 27.7994 36.0927C27.2168 36.5317 26.4137 36.5259 25.8387 36.0793L22.9982 33.8828L20.1577 36.0793C19.5808 36.524 18.7777 36.5297 18.1969 36.0927C17.6277 35.6634 17.4053 34.914 17.6507 34.2432L18.9176 30.7874L16.0618 29.2004C15.5098 28.8937 15.0287 28.3111 15.0287 27.6192C15.0287 27.0327 15.5385 26.3848 16.3627 26.3848H20.4643L21.5511 22.2161C21.7236 21.5548 22.3158 21.0948 22.9982 21.0833C23.6786 21.0968 24.2728 21.5548 24.4453 22.2161L25.532 26.3848H29.6337C30.4578 26.3848 30.9677 27.0307 30.9677 27.6192Z" fill="#10133B"/>
</g>
<defs>
<clipPath id="clip0_336_435">
<rect width="46" height="46" fill="white"/>
</clipPath>
</defs>
</svg>
