<svg width="19" height="19" viewBox="0 0 19 19" fill="none" xmlns="http://www.w3.org/2000/svg">
<g clip-path="url(#clip0_336_499)">
<path d="M18.9413 9.48021C18.9413 14.725 14.7299 18.9802 9.53921 18.9802C4.36808 18.9802 0.156738 14.725 0.156738 9.48021C0.156738 4.25521 4.36808 0 9.53921 0C14.7299 0 18.9413 4.25521 18.9413 9.48021Z" fill="#0E123B"/>
<path d="M9.44121 4.96768C9.46733 4.36074 9.49345 3.75379 9.51956 3.14685C5.89585 3.14685 2.97729 5.97706 2.97729 9.48018C2.97729 12.9833 5.89585 15.8333 9.51956 15.8333C9.54568 15.2791 9.5718 14.7316 9.59791 14.1906C6.87523 14.1312 4.72059 11.9146 4.81853 9.40102C4.89688 7.08539 6.89482 5.08643 9.44121 4.96768Z" fill="#FEFEFE"/>
<path d="M13.1432 9.48016C13.1432 11.5781 11.4586 13.2802 9.38235 13.2802C7.30606 13.2802 5.64111 11.5781 5.64111 9.48016C5.64111 7.40203 7.30606 5.69995 9.38235 5.69995C11.4586 5.69995 13.1432 7.40203 13.1432 9.48016Z" fill="#FEFEFE"/>
</g>
<defs>
<clipPath id="clip0_336_499">
<rect width="19" height="19" fill="white"/>
</clipPath>
</defs>
</svg>
