<svg width="222" height="216" viewBox="0 0 222 216" fill="none" xmlns="http://www.w3.org/2000/svg">
<g clip-path="url(#clip0_336_1922)">
<path d="M222 171V36C222 28.8392 219.076 21.9716 213.872 16.9081C208.668 11.8446 201.61 9 194.25 9H27.75C20.3902 9 13.3319 11.8446 8.12779 16.9081C2.92365 21.9716 0 28.8392 0 36L0 171H101.75V189H55.5V207H166.5V189H120.25V171H222ZM18.5 36C18.5 33.6131 19.4746 31.3239 21.2093 29.636C22.944 27.9482 25.2967 27 27.75 27H194.25C196.703 27 199.056 27.9482 200.791 29.636C202.525 31.3239 203.5 33.6131 203.5 36V153H18.5V36ZM138.426 81H185V99H148.324L123.728 134.892L95.978 80.892L83.5737 99H37V81H73.6763L98.272 45.108L126.022 99.108L138.426 81Z" fill="#10133B"/>
</g>
<defs>
<clipPath id="clip0_336_1922">
<rect width="222" height="216" fill="white"/>
</clipPath>
</defs>
</svg>
