<svg id="_Group_" data-name="&lt;Group&gt;" xmlns="http://www.w3.org/2000/svg" width="177.938" height="178.625" viewBox="0 0 177.938 178.625">
  <defs>
    <style>
      .cls-1, .cls-2 {
        fill: #0e123b;
      }

      .cls-1 {
        fill-rule: evenodd;
      }
    </style>
  </defs>
  <path id="_Compound_Path_" data-name="&lt;Compound Path&gt;" class="cls-1" d="M279.609,103.094a64.659,64.659,0,1,1-64.647,64.664A64.692,64.692,0,0,1,279.609,103.094Zm24.4,94.411c-0.464.194-.7,0.282-0.933,0.391-3.273,1.556-6.563,3.077-9.805,4.7a12.222,12.222,0,0,0-2.721,1.894,13.883,13.883,0,0,1-12.052,3.737,14.156,14.156,0,0,1-10.264-20.645,2.625,2.625,0,0,0,.328-1.174q-0.061-13.87-.158-27.74a12.219,12.219,0,0,1,.14-2.207,10.977,10.977,0,0,1,8.792-8.757,10.868,10.868,0,0,1,11.022,4.754,6,6,0,0,0,1.36,1.456q10.969,8.225,21.972,16.406c0.634,0.472,1.278.931,1.906,1.389,1.028-.976,1.983-1.879,2.933-2.784,0.488-.465.823-0.913,0.049-1.454a16.5,16.5,0,0,1-1.327-1.124l2.151-2.564c0.574,0.625,1.024,1.074,1.425,1.563a0.693,0.693,0,0,0,1.2.038c0.6-.628,1.178-1.272,1.788-1.885,0.9-.9,1.819-1.781,2.758-2.7-0.706-.741-1.314-1.378-1.813-1.9l2.037-2.431c0.723,0.732,1.323,1.338,1.957,1.977,1.739-1.731,3.426-3.411,5.165-5.145-3.134-3.206-6.2-6.391-9.322-9.525-5.232-5.251-10.5-10.467-15.746-15.7-0.81-.807-0.933-0.8-1.75.024q-2.028,2.054-4.087,4.076a5.6,5.6,0,0,1-.708.5c-0.8-1.036-1.521-2.015-2.29-2.956a1.977,1.977,0,0,0-.884-0.666c-2.45-.709-4.941-0.27-7.5-0.345v4.838l-4.771.3v-5.145H283.7q-4.24,0-8.48,0c-1.447,0-1.553.138-1.515,1.628,0.028,1.042,0,2.085,0,3.051h-5.333V128.7a43.543,43.543,0,0,1-4.742.225,3.093,3.093,0,0,0-3.259,2.156c-0.466.994-1.12,1.9-1.894,3.183l-6.68-6.955c-8.624,8.67-17.233,17.327-25.95,26.09,1.594,1.6,3.14,3.181,4.73,4.714a0.909,0.909,0,0,0,.841-0.11,15.743,15.743,0,0,0,1.29-1.317l2.479,2.022-2.044,2.053c1.154,1.155,2.311,2.255,3.4,3.418,1.648,1.759,1.62,1.77,3.29.078a0.8,0.8,0,0,1,.747-0.045,2.922,2.922,0,0,1,.645.715c-0.113.164-.193,0.3-0.289,0.417q-5.451,6.738-10.9,13.474c-2.784,3.445-5.59,6.873-8.332,10.351a4.591,4.591,0,0,0,.228,6.016,4.413,4.413,0,0,0,5.864.714,4.7,4.7,0,0,1,3.631-.91c0.672,0.046,1.35.063,2.017,0.152a1.467,1.467,0,0,0,1.472-.652c1.711-2.168,3.457-4.305,5.186-6.457,0.169-.211.309-0.447,0.546-0.794-1.769-.12-3.373-0.227-5.159-0.347,0.391-.494.643-0.817,0.9-1.137q4.872-6.03,9.74-12.061a1.349,1.349,0,0,0,.441-0.71c-0.154-.77.43-1.082,0.814-1.513,0.273-.306.6-0.561,0.961-0.889,0.312,0.527,1.37-.086,1.486.926,0.079,0.692.156,1.386,0.234,2.078l-0.387-.078a3.971,3.971,0,0,0-.43,1.05,3.557,3.557,0,0,0,.132,1.327c3.06,10.768,6.144,21.527,9.181,32.3a1.241,1.241,0,0,0,1.463,1.065q19.222-.037,38.444.012a1.852,1.852,0,0,0,2.02-1.215c0.921-2.425,1.824-4.858,2.675-7.308C303.511,199.752,303.7,198.714,304.007,197.505Zm-9.088-2.368a1.836,1.836,0,0,0,.431-0.07c3.331-1.578,6.662-3.154,9.978-4.763a1.143,1.143,0,0,0,.5-0.74c0.921-5.178,1.807-10.363,2.728-15.541a1.349,1.349,0,0,0-.634-1.522q-8.262-6.065-16.482-12.187c-0.4-.294-0.8-0.581-1.293-0.939a10.991,10.991,0,0,1-5.913,8.642c-3.426,1.779-6.9,1.527-10.363-.118v13.927c4.97-2.4,9.8-2.393,14.412.492C292.958,185.239,294.934,189.681,294.919,195.137Zm14.014-7.775c-0.357,1.218-.589,2.146-0.906,3.044a1.4,1.4,0,0,0,.256,1.493c2.4,3.093,4.807,6.182,7.124,9.339a18.432,18.432,0,0,1,1.462,2.968c-1.711-1.858-3.219-3.812-4.722-5.771s-3-3.92-4.646-6.075a22.741,22.741,0,0,0-.7,2.42,1.74,1.74,0,0,0,.222,1.213c2.6,3.464,5.219,6.918,7.89,10.329a5.612,5.612,0,0,0,8.85-6.9c-2.16-2.913-4.4-5.768-6.6-8.651-0.24-.314-0.451-0.648-0.7-1.012,4.073-.978,4.279-1.131,6.864-5.08l3.258,4.05-4.293.258a31.823,31.823,0,0,1,3.048,3.8,4.848,4.848,0,0,0,5.749,2.524,1.637,1.637,0,0,1,1.173.384,3.748,3.748,0,0,0,3.878.724,3.545,3.545,0,0,0,2.383-3.116,3.907,3.907,0,0,0-.976-3.02q-5.214-6.432-10.414-12.878c-1.056-1.307-2.105-2.622-3.185-3.971,8.1-2.519,7.667-11.217,4.11-14l-11.352,12.075,2.039,1.359a5.889,5.889,0,0,0-.333,1.343,5.6,5.6,0,0,0,.3,1.315c-0.16-.048-0.309-0.1-0.461-0.135A7.265,7.265,0,0,0,310.81,187.1c1.834,2.184,3.537,4.479,5.433,6.6,1.249,1.4,1.139,2.983,1.226,4.782Zm-29.371,37.48q9.582,0,19.166.009c0.694,0,1.031-.116,1.022-0.945q-0.067-5.922,0-11.846a0.8,0.8,0,0,0-1-.967q-19.118.024-38.236-.006a0.8,0.8,0,0,0-.965,1c0.028,3.884.04,7.769-.013,11.653-0.013.918,0.294,1.121,1.15,1.117C266.977,224.827,273.27,224.842,279.562,224.842ZM259.224,124.8l-0.38.108a2.952,2.952,0,0,1-.272-0.824c-0.029-1.316-.008-2.632-0.015-3.948-0.008-1.825-.012-1.825-1.836-1.74a0.567,0.567,0,0,0-.282.016,1.187,1.187,0,0,0-.5.54,35.01,35.01,0,0,0,.533,5.513c0.474,2.028,1.181,2.37,3.247,2.369l37.654-.005c2.148,0,2.983-.521,3.453-2.645a44.565,44.565,0,0,0,.455-4.572c0.115-.991-0.269-1.244-1.236-1.238-7.576.037-15.151,0.02-22.727,0.02-1.346,0-1.346,0-1.347,1.364v5.054H272.32c0-1.889-.022-3.713.012-5.535a0.741,0.741,0,0,0-.891-0.9,0.766,0.766,0,0,0-.922.961c0.035,1.819.012,3.638,0.012,5.464h-2.687v-1.209c0-1.477-.027-2.954.006-4.43,0.017-.778-0.445-0.772-1-0.777-0.579-.006-1,0.043-0.976.806,0.041,1.218.011,2.439,0.011,3.658v2.05l-1.814-.094c0-1.906-.028-3.7.015-5.493a0.778,0.778,0,0,0-.951-0.94c-0.757-.015-0.919.292-0.9,0.972,0.04,1.507.016,3.016,0.012,4.525,0,1.094-.063,1.134-1.237.827,0-1.736-.017-3.5.009-5.256,0.009-.657-0.04-1.075-0.9-1.075s-0.914.411-.9,1.075C259.242,121.225,259.224,123.011,259.224,124.8Zm6.054-12.118h-1.025c-2.89,0-5.781,0-8.672,0a3.382,3.382,0,0,0-3.666,3.648c-0.025.946,0.212,1.251,1.224,1.249q25.434-.051,50.871-0.023a2.324,2.324,0,0,0,.669-0.02,0.705,0.705,0,0,0,.456-0.36c0.369-2.572-.851-4.469-3.3-4.489-2.986-.025-5.973-0.006-8.961-0.006h-0.987c-0.442-1.7-.814-1.987-2.448-1.988q-10.84,0-21.679,0C266.069,110.692,265.69,110.989,265.278,112.679Zm41.822,12.6,25.69,26.28c0.845-.787,1.563-1.456,2.307-2.151l-1.857-1.952c0.442-.422.823-0.765,1.182-1.132,1.773-1.809,1.754-2.783-.057-4.606-1.757-1.769-3.5-3.55-5.281-5.351l1.633-1.763c-2.324-2.378-4.563-4.667-6.982-7.143-0.548.707-1.075,1.389-1.718,2.217-2.063-2.124-3.927-4.073-5.825-5.987a2.39,2.39,0,0,0-3.722,0c-0.522.511-1,1.069-1.522,1.635l-1.964-1.844C308.214,124.213,307.545,124.851,307.1,125.274Zm-79.058,11c-1.866,1.932-3.635,3.784-5.429,5.614-1.547,1.578-1.579,2.729-.015,4.263a13.976,13.976,0,0,0,1.442,1.1c-0.018.161-.036,0.322-0.053,0.483l-2.024,1.414,2.418,2.454q12.849-13.114,25.668-26.2l-1.842-1.963-1.95,1.834c-0.434-.454-0.784-0.828-1.142-1.193-1.682-1.713-2.809-1.743-4.48-.06-1.8,1.811-3.563,3.654-5.585,5.731l-1.744-2.167-6.913,6.96Zm15.36,67.884-0.252-.137a18.587,18.587,0,0,1,1.439-2.849c2.3-3.127,4.69-6.186,7.037-9.278a1.4,1.4,0,0,0,.422-0.815c-0.263-1.168-.623-2.313-1.021-3.725l-8.556,11.134c0.122-1.923.117-3.487,1.325-4.913,2.132-2.518,4.053-5.216,6.049-7.849a1.49,1.49,0,0,0,.427-0.9c-0.17-.863-0.478-1.7-0.819-2.831-0.26.365-.38,0.544-0.511,0.715-4.23,5.529-8.48,11.043-12.683,16.593a5.627,5.627,0,1,0,8.993,6.758q3.579-4.656,7.128-9.333a3.214,3.214,0,0,0-.084-4.165Q247.832,198.388,243.4,204.163Zm31.612-9.949a5.7,5.7,0,0,0,5.6,5.786A5.765,5.765,0,1,0,275.014,194.214ZM280.9,184.6a2.906,2.906,0,0,0-.4-0.069,9.739,9.739,0,0,0-9.527,9.038,9.837,9.837,0,0,0,7.765,10.265c2.268,0.414,2.537.137,2.129-2.187a0.24,0.24,0,0,0-.052-0.076c-4.625-.862-7.076-3.182-7.26-6.858a7.109,7.109,0,0,1,1.319-4.627,7.455,7.455,0,0,1,6.025-3.066V184.6Zm-1.635-22.365a3.865,3.865,0,0,0,3.85-3.868,3.845,3.845,0,0,0-7.689,0A3.859,3.859,0,0,0,279.263,162.235Zm0-12.2c-0.637.082-1.2,0.131-1.751,0.23a8.3,8.3,0,0,0-6.581,8.55,8.393,8.393,0,0,0,7.507,7.872c0.492,0.034.927,0.061,0.892-.629-0.027-.545.177-1.1-0.775-1.19A6.511,6.511,0,0,1,278.077,152l1.183-.225V150.04Zm34.361,56.914c-0.675-.872-1.217-1.577-1.763-2.277-1.345-1.719-2.67-3.453-4.058-5.135a1.693,1.693,0,0,0-1.138-.46,1.276,1.276,0,0,0-.536.754,16.915,16.915,0,0,0-.472,1.665c-0.465,1.791-.925,3.583-1.407,5.453h9.374Zm-58.563,0c-0.638-2.408-1.238-4.723-1.877-7.026a1.364,1.364,0,0,0-.553-0.841,1.843,1.843,0,0,0-1.2.526c-1.8,2.211-3.535,4.468-5.287,6.715a5.686,5.686,0,0,0-.361.626h9.276Z" transform="translate(-190.312 -78.438)"/>
  <path id="_Path_" data-name="&lt;Path&gt;" class="cls-1" d="M339.27,234.176a89.257,89.257,0,1,1-41.894-153.9c44.646,9.365,68.03,46.493,70.881,77.431-0.38-.194-0.722-0.348-1.044-0.534-2-1.157-4.009-2.3-5.976-3.506a1.971,1.971,0,0,1-.833-1.14,85.111,85.111,0,0,0-6.229-19.367A82.354,82.354,0,0,0,295.41,87.12a75.9,75.9,0,0,0-20.78-1.38c-26.706,2.191-47.909,14.107-63.16,36.236a81.97,81.97,0,0,0-13.694,52.81,82.084,82.084,0,0,0,72.247,74.585,78.008,78.008,0,0,0,18.159.132,81.7,81.7,0,0,0,43.879-18.462,1.142,1.142,0,0,1,1.574-.139C335.473,232.012,337.345,233.063,339.27,234.176Z" transform="translate(-190.312 -78.438)"/>
  <path id="_Path_2" data-name="&lt;Path&gt;" class="cls-1" d="M204.709,156.577c1.77,1.753,3.464,3.409,5.12,5.1a1.291,1.291,0,0,1,.18.888,68.215,68.215,0,0,0,7.945,37.821c9.273,17.164,23.283,28.664,42,34.331a65.8,65.8,0,0,0,28.369,2.291c21.914-3.029,38.816-13.964,50.7-32.6a65.437,65.437,0,0,0,9.923-28.268c2.183-19.652-2.872-37.331-15.394-52.661a67.982,67.982,0,0,0-41.409-24.4,68.738,68.738,0,0,0-41.464,5.157,1.133,1.133,0,0,1-1.561-.263c-1.191-1.294-2.461-2.514-3.706-3.771,23.093-12.424,59.62-12.856,86.635,12.748,26.8,25.4,31.138,66.892,10.2,97.585a75.671,75.671,0,0,1-94.707,25.915C212.893,220.132,200.051,184.517,204.709,156.577Z" transform="translate(-190.312 -78.438)"/>
  <path id="_Path_3" data-name="&lt;Path&gt;" class="cls-1" d="M302.963,140.352l6.72-6.661c4.911,4.928,9.884,9.916,14.847,14.894l-6.783,6.7Z" transform="translate(-190.312 -78.438)"/>
  <path id="_Path_4" data-name="&lt;Path&gt;" class="cls-1" d="M239.777,155.263l-6.74-6.725,14.938-14.926c2.213,2.239,4.485,4.536,6.695,6.769Z" transform="translate(-190.312 -78.438)"/>
  <path id="_Path_5" data-name="&lt;Path&gt;" class="cls-1" d="M264.2,171.628a4.118,4.118,0,0,1-8.235-.064A4.118,4.118,0,1,1,264.2,171.628Z" transform="translate(-190.312 -78.438)"/>
  <path id="_Path_6" data-name="&lt;Path&gt;" class="cls-1" d="M241.045,168.615l1.1,1.09c-5.085,6.291-10.1,12.489-15.138,18.724a4.776,4.776,0,0,1,1.269-4.027q6.015-7.443,12.019-14.894C240.509,169.237,240.739,168.977,241.045,168.615Z" transform="translate(-190.312 -78.438)"/>
  <circle id="_Path_7" data-name="&lt;Path&gt;" class="cls-2" cx="104.36" cy="68.859" r="2.984"/>
  <path id="_Path_8" data-name="&lt;Path&gt;" class="cls-1" d="M227.46,193.317a9.159,9.159,0,0,1,2.34-4.021q7.07-8.74,14.125-17.493c0.855,0.221.438,0.614,0.17,0.95q-2.431,3.039-4.88,6.066-5.616,6.956-11.237,13.906C227.859,192.872,227.729,193.011,227.46,193.317Z" transform="translate(-190.312 -78.438)"/>
  <path id="_Path_9" data-name="&lt;Path&gt;" class="cls-1" d="M316.306,178.792a3.551,3.551,0,0,1,3.583,3.6,3.619,3.619,0,0,1-3.578,3.645,3.66,3.66,0,0,1-3.59-3.643A3.566,3.566,0,0,1,316.306,178.792Z" transform="translate(-190.312 -78.438)"/>
  <path id="_Path_10" data-name="&lt;Path&gt;" class="cls-1" d="M333.34,189.81c-4.407-5.455-8.813-10.911-13.266-16.424a2.55,2.55,0,0,1,2.491,1.105c3.374,4.244,6.841,8.411,10.193,12.67a8.682,8.682,0,0,1,.921,2.518Z" transform="translate(-190.312 -78.438)"/>
  <path id="_Path_11" data-name="&lt;Path&gt;" class="cls-1" d="M323.688,181.382c3.165,4.012,6.525,7.872,9.54,12l-0.38.3c-3.128-4.04-6.482-7.9-9.571-11.974C323.413,181.6,323.55,181.488,323.688,181.382Z" transform="translate(-190.312 -78.438)"/>
  <path id="_Path_12" data-name="&lt;Path&gt;" class="cls-1" d="M273.465,219.006v3.2h-9.728v-3.2h9.728Z" transform="translate(-190.312 -78.438)"/>
  <path id="_Path_13" data-name="&lt;Path&gt;" class="cls-1" d="M285.863,219h9.7v3.214h-9.7V219Z" transform="translate(-190.312 -78.438)"/>
  <path id="_Path_14" data-name="&lt;Path&gt;" class="cls-1" d="M314.5,125.014c0.748-.428,1.363-0.339,2.266.551,2.355,2.314,4.691,4.649,7.034,6.975q4.573,4.537,9.145,9.078c0.936,0.934,1.015,1.622.237,2.829,0.28-1.405-.485-2.1-1.221-2.825-5.194-5.151-10.369-10.323-15.585-15.451A9.367,9.367,0,0,0,314.5,125.014Z" transform="translate(-190.312 -78.438)"/>
  <path id="_Path_15" data-name="&lt;Path&gt;" class="cls-1" d="M223.72,144c-0.488-.8-0.38-1.5.555-2.437q4.2-4.182,8.4-8.351,3.828-3.8,7.661-7.6c0.931-.919,1.6-1.036,2.288-0.635a13.832,13.832,0,0,0-2.1,1.456q-7.924,7.8-15.765,15.683A7.537,7.537,0,0,0,223.72,144Z" transform="translate(-190.312 -78.438)"/>
</svg>
