<svg id="_Group_" data-name="&lt;Group&gt;" xmlns="http://www.w3.org/2000/svg" width="166.5" height="167.156" viewBox="0 0 166.5 167.156">
  <defs>
    <style>
      .cls-1, .cls-2 {
        fill: #fefefe;
      }

      .cls-1 {
        fill-rule: evenodd;
      }
    </style>
  </defs>
  <path id="_Compound_Path_" data-name="&lt;Compound Path&gt;" class="cls-1" d="M268.456,475.421a60.5,60.5,0,1,1-60.492,60.508A60.534,60.534,0,0,1,268.456,475.421Zm22.83,88.342c-0.435.182-.659,0.264-0.873,0.366-3.063,1.456-6.141,2.88-9.175,4.393a11.418,11.418,0,0,0-2.546,1.773,12.992,12.992,0,0,1-11.278,3.5,13.245,13.245,0,0,1-9.6-19.317,2.455,2.455,0,0,0,.307-1.1q-0.057-12.98-.147-25.957a11.393,11.393,0,0,1,.13-2.066,10.274,10.274,0,0,1,8.227-8.194,10.17,10.17,0,0,1,10.314,4.449,5.572,5.572,0,0,0,1.273,1.362q10.264,7.7,20.559,15.352c0.593,0.441,1.2.871,1.784,1.3,0.962-.912,1.855-1.757,2.744-2.605,0.457-.435.771-0.853,0.046-1.36a15.522,15.522,0,0,1-1.242-1.052l2.013-2.4c0.537,0.585.958,1,1.333,1.462a0.648,0.648,0,0,0,1.125.036c0.559-.587,1.1-1.19,1.673-1.763,0.842-.844,1.7-1.667,2.581-2.524-0.661-.692-1.229-1.289-1.7-1.78l1.906-2.275,1.832,1.851c1.627-1.621,3.2-3.192,4.833-4.815-2.932-3-5.8-5.981-8.723-8.913-4.9-4.913-9.823-9.794-14.734-14.693-0.758-.755-0.873-0.752-1.638.023-1.264,1.281-2.543,2.549-3.824,3.813a5.135,5.135,0,0,1-.662.469c-0.745-.97-1.423-1.885-2.143-2.767a1.854,1.854,0,0,0-.827-0.622c-2.293-.664-4.624-0.253-7.02-0.324v4.528l-4.464.276v-4.814h-1.082q-3.966,0-7.934,0c-1.354,0-1.454.129-1.418,1.524,0.027,0.974,0,1.951,0,2.854h-4.99V499.38a40.608,40.608,0,0,1-4.438.21,2.894,2.894,0,0,0-3.049,2.018c-0.436.93-1.048,1.777-1.773,2.978l-6.25-6.508-24.282,24.413c1.491,1.5,2.938,2.977,4.426,4.411a0.847,0.847,0,0,0,.786-0.1,14.526,14.526,0,0,0,1.207-1.232c0.8,0.653,1.539,1.254,2.32,1.892l-1.912,1.921c1.08,1.081,2.162,2.11,3.183,3.2,1.542,1.646,1.515,1.655,3.078.073a0.751,0.751,0,0,1,.7-0.043,2.77,2.77,0,0,1,.6.669c-0.1.153-.18,0.279-0.27,0.391q-5.1,6.3-10.2,12.607c-2.605,3.224-5.231,6.432-7.8,9.686a4.3,4.3,0,0,0,.214,5.63,4.13,4.13,0,0,0,5.487.668,4.39,4.39,0,0,1,3.4-.851c0.629,0.043,1.262.058,1.887,0.141a1.371,1.371,0,0,0,1.377-.61c1.6-2.028,3.235-4.028,4.852-6.042,0.159-.2.289-0.418,0.512-0.743l-4.828-.325c0.366-.461.6-0.764,0.843-1.063q4.557-5.643,9.113-11.286a1.266,1.266,0,0,0,.413-0.665,1.56,1.56,0,0,1,.762-1.415c0.255-.286.564-0.525,0.9-0.832,0.292,0.493,1.282-.081,1.39.866q0.111,0.972.22,1.945l-0.362-.073a3.724,3.724,0,0,0-.4.982,3.333,3.333,0,0,0,.124,1.242c2.862,10.076,5.749,20.144,8.591,30.224a1.161,1.161,0,0,0,1.369,1q17.986-.036,35.973.011A1.733,1.733,0,0,0,288,573.626c0.862-2.27,1.708-4.546,2.5-6.839C290.821,565.866,291,564.894,291.286,563.763Zm-8.5-2.215a1.742,1.742,0,0,0,.4-0.066c3.117-1.477,6.234-2.951,9.337-4.457a1.066,1.066,0,0,0,.471-0.693c0.862-4.845,1.691-9.7,2.553-14.541a1.264,1.264,0,0,0-.593-1.425q-7.731-5.675-15.422-11.4c-0.373-.275-0.75-0.544-1.21-0.879a10.336,10.336,0,0,1-15.231,7.976v13.032c4.651-2.244,9.167-2.239,13.486.46C280.947,552.285,282.8,556.443,282.782,561.548Zm13.113-7.276c-0.334,1.14-.551,2.008-0.848,2.848a1.313,1.313,0,0,0,.24,1.4c2.246,2.894,4.5,5.784,6.666,8.738a17.192,17.192,0,0,1,1.368,2.778c-1.6-1.739-3.012-3.567-4.418-5.4s-2.806-3.669-4.348-5.685a21.455,21.455,0,0,0-.653,2.264,1.623,1.623,0,0,0,.207,1.135c2.434,3.242,4.883,6.474,7.383,9.666a5.251,5.251,0,0,0,8.281-6.458c-2.021-2.726-4.115-5.4-6.173-8.1-0.224-.293-0.422-0.607-0.657-0.947,3.81-.915,4-1.058,6.422-4.753l3.049,3.79-4.018.241a29.607,29.607,0,0,1,2.853,3.558,4.536,4.536,0,0,0,5.379,2.361,1.536,1.536,0,0,1,1.1.36,3.509,3.509,0,0,0,3.629.677,3.316,3.316,0,0,0,2.229-2.915,3.651,3.651,0,0,0-.913-2.826q-4.879-6.019-9.745-12.05c-0.988-1.224-1.969-2.454-2.98-3.717,7.581-2.357,7.174-10.5,3.846-13.1-3.516,3.74-7.037,7.487-10.622,11.3l1.907,1.271a5.513,5.513,0,0,0-.311,1.257,5.209,5.209,0,0,0,.283,1.23c-0.15-.044-0.289-0.093-0.432-0.127a6.8,6.8,0,0,0-6.965,10.963c1.716,2.043,3.309,4.191,5.084,6.179,1.169,1.31,1.066,2.792,1.147,4.475C301.2,561.187,298.629,557.837,295.9,554.272Zm-27.483,35.071q8.966,0,17.934.009c0.65,0,.965-0.109.957-0.885q-0.065-5.541,0-11.084a0.748,0.748,0,0,0-.935-0.905q-17.888.023-35.778-.006a0.749,0.749,0,0,0-.9.937c0.025,3.634.037,7.27-.013,10.9-0.011.859,0.275,1.049,1.077,1.045C256.636,589.329,262.524,589.343,268.412,589.343Zm-19.031-93.615-0.356.1a2.784,2.784,0,0,1-.254-0.772c-0.027-1.231-.007-2.462-0.014-3.694-0.008-1.708-.011-1.708-1.718-1.628a0.545,0.545,0,0,0-.264.015,1.119,1.119,0,0,0-.466.5,32.823,32.823,0,0,0,.5,5.159c0.444,1.9,1.105,2.217,3.038,2.217l35.234,0c2.01,0,2.791-.488,3.231-2.475a41.418,41.418,0,0,0,.426-4.278c0.107-.927-0.252-1.164-1.156-1.159-7.09.035-14.178,0.019-21.267,0.019-1.259,0-1.259,0-1.26,1.277v4.729h-3.418c0-1.768-.022-3.474.011-5.179a0.694,0.694,0,0,0-.834-0.841,0.718,0.718,0,0,0-.863.9c0.033,1.7.011,3.4,0.011,5.113h-2.514V494.6c0-1.382-.025-2.764,0-4.145,0.017-.728-0.416-0.722-0.936-0.727-0.541-.006-0.938.04-0.913,0.753,0.039,1.14.01,2.283,0.011,3.424v1.918l-1.7-.088c0-1.783-.027-3.463.014-5.14a0.729,0.729,0,0,0-.89-0.88c-0.708-.013-0.86.274-0.843,0.91,0.037,1.41.015,2.822,0.011,4.234,0,1.023-.058,1.062-1.157.774,0-1.625-.017-3.272.008-4.918,0.009-.615-0.038-1.006-0.842-1.006s-0.855.385-.845,1.006C249.4,492.386,249.381,494.057,249.381,495.728Zm5.665-11.339h-0.959q-4.057,0-8.114,0a3.163,3.163,0,0,0-3.431,3.413c-0.024.885,0.2,1.171,1.145,1.169q23.8-.048,47.6-0.022a2.17,2.17,0,0,0,.626-0.019,0.651,0.651,0,0,0,.426-0.337c0.345-2.406-.8-4.181-3.089-4.2-2.794-.024-5.589-0.006-8.384-0.006h-0.924c-0.413-1.587-.762-1.859-2.291-1.86q-10.143,0-20.286,0C255.786,482.53,255.432,482.808,255.046,484.389Zm39.134,11.785q12.115,12.4,24.039,24.592l2.159-2.013-1.738-1.827c0.414-.394.77-0.716,1.106-1.058,1.659-1.693,1.641-2.6-.054-4.31-1.644-1.656-3.279-3.323-4.941-5.008,0.543-.586,1.083-1.168,1.528-1.65-2.174-2.224-4.27-4.367-6.533-6.683l-1.607,2.074c-1.931-1.988-3.676-3.811-5.451-5.6a2.237,2.237,0,0,0-3.483,0c-0.488.479-.935,1-1.424,1.531l-1.838-1.726Zm-73.976,10.3c-1.747,1.807-3.4,3.54-5.081,5.252-1.447,1.477-1.477,2.555-.014,3.989a13.05,13.05,0,0,0,1.35,1.029c-0.017.151-.034,0.3-0.05,0.452l-1.894,1.323,2.262,2.3L240.8,496.3l-1.723-1.836-1.826,1.715c-0.406-.424-0.733-0.775-1.068-1.116-1.574-1.6-2.628-1.63-4.192-.056-1.682,1.695-3.334,3.42-5.226,5.363l-1.632-2.028-6.469,6.512Zm14.372,63.521-0.236-.128a17.382,17.382,0,0,1,1.347-2.666c2.15-2.927,4.389-5.789,6.584-8.682a1.3,1.3,0,0,0,.4-0.763c-0.246-1.092-.582-2.165-0.955-3.485l-8.006,10.417c0.114-1.8.109-3.262,1.24-4.6,2-2.357,3.793-4.882,5.66-7.345a1.4,1.4,0,0,0,.4-0.845c-0.16-.807-0.448-1.589-0.767-2.649-0.243.342-.355,0.509-0.478,0.669-3.958,5.174-7.935,10.334-11.868,15.527a5.265,5.265,0,1,0,8.415,6.323q3.35-4.356,6.67-8.733a3.006,3.006,0,0,0-.079-3.9Zm29.58-9.31a5.333,5.333,0,0,0,5.237,5.414A5.394,5.394,0,1,0,264.156,560.684Zm5.506-9a2.816,2.816,0,0,0-.373-0.065,9.125,9.125,0,0,0-1.649,18.062c2.122,0.388,2.374.129,1.992-2.046a0.235,0.235,0,0,0-.048-0.071c-4.328-.807-6.622-2.977-6.794-6.417a6.649,6.649,0,0,1,1.235-4.329,6.976,6.976,0,0,1,5.637-2.87v-2.264Zm-1.53-20.928a3.617,3.617,0,0,0,3.6-3.619,3.6,3.6,0,0,0-7.195,0A3.61,3.61,0,0,0,268.132,530.76Zm0-11.411c-0.6.077-1.121,0.122-1.638,0.216a7.767,7.767,0,0,0-6.158,8,7.854,7.854,0,0,0,7.024,7.366c0.461,0.032.868,0.057,0.835-.588-0.025-.511.166-1.032-0.725-1.114a6.093,6.093,0,0,1-.444-12.048l1.106-.21v-1.622Zm32.153,53.256c-0.632-.816-1.139-1.475-1.65-2.13-1.258-1.609-2.5-3.232-3.8-4.806a1.578,1.578,0,0,0-1.065-.43,1.193,1.193,0,0,0-.5.706,15.923,15.923,0,0,0-.442,1.558c-0.435,1.675-.866,3.353-1.316,5.1h8.771Zm-54.8,0c-0.6-2.254-1.159-4.419-1.756-6.575a1.28,1.28,0,0,0-.518-0.786,1.716,1.716,0,0,0-1.12.492c-1.681,2.069-3.309,4.181-4.948,6.284a5.172,5.172,0,0,0-.338.585h8.68Z" transform="translate(-184.906 -452.344)"/>
  <path id="_Path_" data-name="&lt;Path&gt;" class="cls-1" d="M324.283,598.078a83.521,83.521,0,1,1-39.2-144.01c41.776,8.762,63.658,43.5,66.326,72.453-0.356-.181-0.676-0.325-0.977-0.5-1.871-1.083-3.752-2.149-5.592-3.281a1.847,1.847,0,0,1-.78-1.066,79.6,79.6,0,0,0-5.829-18.123,77.06,77.06,0,0,0-54.988-43.079,70.976,70.976,0,0,0-19.444-1.291c-24.99,2.05-44.829,13.2-59.1,33.907a76.683,76.683,0,0,0-12.814,49.416,76.807,76.807,0,0,0,67.6,69.791,72.938,72.938,0,0,0,16.991.123,76.456,76.456,0,0,0,41.059-17.275,1.069,1.069,0,0,1,1.473-.13C320.73,596.052,322.481,597.036,324.283,598.078Z" transform="translate(-184.906 -452.344)"/>
  <path id="_Path_2" data-name="&lt;Path&gt;" class="cls-1" d="M198.37,525.466c1.656,1.64,3.241,3.189,4.791,4.774a1.214,1.214,0,0,1,.169.831,63.828,63.828,0,0,0,7.433,35.39c8.678,16.061,21.787,26.821,39.3,32.125a61.583,61.583,0,0,0,26.546,2.144c20.506-2.835,36.321-13.068,47.446-30.5a61.223,61.223,0,0,0,9.285-26.451c2.043-18.388-2.687-34.931-14.4-49.276a63.614,63.614,0,0,0-38.748-22.83,64.313,64.313,0,0,0-38.8,4.826,1.061,1.061,0,0,1-1.461-.247c-1.114-1.21-2.3-2.352-3.467-3.528,21.608-11.626,55.788-12.029,81.066,11.929a70.952,70.952,0,0,1-79.071,115.562C206.028,584.936,194.011,551.611,198.37,525.466Z" transform="translate(-184.906 -452.344)"/>
  <path id="_Path_3" data-name="&lt;Path&gt;" class="cls-1" d="M290.309,510.284l6.288-6.233,13.893,13.936c-2.009,1.984-4.177,4.123-6.347,6.267Z" transform="translate(-184.906 -452.344)"/>
  <path id="_Path_4" data-name="&lt;Path&gt;" class="cls-1" d="M231.184,524.236l-6.307-6.292,13.978-13.967c2.071,2.1,4.2,4.244,6.265,6.334Z" transform="translate(-184.906 -452.344)"/>
  <circle id="_Path_5" data-name="&lt;Path&gt;" class="cls-2" cx="65.281" cy="87.156" r="3.844"/>
  <path id="_Path_6" data-name="&lt;Path&gt;" class="cls-1" d="M232.371,536.73l1.025,1.02c-4.758,5.887-9.447,11.687-14.164,17.521a4.467,4.467,0,0,1,1.186-3.768q5.629-6.965,11.247-13.938C231.869,537.313,232.084,537.069,232.371,536.73Z" transform="translate(-184.906 -452.344)"/>
  <path id="_Path_7" data-name="&lt;Path&gt;" class="cls-1" d="M282.577,519.56a2.785,2.785,0,1,1,2.774-2.829A2.819,2.819,0,0,1,282.577,519.56Z" transform="translate(-184.906 -452.344)"/>
  <path id="_Path_8" data-name="&lt;Path&gt;" class="cls-1" d="M219.659,559.844a8.569,8.569,0,0,1,2.189-3.762q6.615-8.179,13.217-16.369c0.8,0.207.411,0.575,0.16,0.889q-2.277,2.844-4.566,5.676-5.256,6.508-10.516,13.013C220.032,559.428,219.91,559.558,219.659,559.844Z" transform="translate(-184.906 -452.344)"/>
  <circle id="_Path_9" data-name="&lt;Path&gt;" class="cls-2" cx="117.891" cy="97.296" r="3.359"/>
  <path id="_Path_10" data-name="&lt;Path&gt;" class="cls-1" d="M318.733,556.563L306.32,541.2a2.383,2.383,0,0,1,2.331,1.033c3.157,3.971,6.4,7.871,9.538,11.856a8.13,8.13,0,0,1,.862,2.357Z" transform="translate(-184.906 -452.344)"/>
  <path id="_Path_11" data-name="&lt;Path&gt;" class="cls-1" d="M309.7,548.677c2.961,3.754,6.106,7.366,8.927,11.227l-0.356.275c-2.927-3.78-6.065-7.4-8.956-11.2C309.444,548.876,309.573,548.776,309.7,548.677Z" transform="translate(-184.906 -452.344)"/>
  <path id="_Path_12" data-name="&lt;Path&gt;" class="cls-1" d="M262.707,583.883v2.994h-9.1v-2.994h9.1Z" transform="translate(-184.906 -452.344)"/>
  <path id="_Path_13" data-name="&lt;Path&gt;" class="cls-1" d="M274.309,583.877h9.072v3.008h-9.072v-3.008Z" transform="translate(-184.906 -452.344)"/>
  <path id="_Path_14" data-name="&lt;Path&gt;" class="cls-1" d="M301.1,495.931c0.7-.4,1.276-0.316,2.121.516,2.2,2.166,4.389,4.351,6.582,6.527q4.28,4.247,8.557,8.5c0.876,0.873.95,1.517,0.222,2.647,0.262-1.315-.454-1.962-1.143-2.644-4.86-4.82-9.7-9.659-14.583-14.458A8.805,8.805,0,0,0,301.1,495.931Z" transform="translate(-184.906 -452.344)"/>
  <path id="_Path_15" data-name="&lt;Path&gt;" class="cls-1" d="M216.159,513.694c-0.457-.75-0.356-1.407.52-2.28q3.925-3.913,7.863-7.814,3.582-3.557,7.168-7.11c0.871-.861,1.5-0.97,2.141-0.6a12.9,12.9,0,0,0-1.969,1.363q-7.416,7.3-14.752,14.675A7.05,7.05,0,0,0,216.159,513.694Z" transform="translate(-184.906 -452.344)"/>
</svg>
