<svg width="46" height="46" viewBox="0 0 46 46" fill="none" xmlns="http://www.w3.org/2000/svg">
<path d="M45.996 40.25C45.996 41.775 45.3902 43.2375 44.3118 44.3159C43.2335 45.3942 41.771 46 40.246 46H30.6626C30.1543 46 29.6668 45.7981 29.3073 45.4386C28.9479 45.0792 28.746 44.5917 28.746 44.0833C28.746 43.575 28.9479 43.0875 29.3073 42.728C29.6668 42.3686 30.1543 42.1667 30.6626 42.1667H40.246C40.7543 42.1667 41.2418 41.9647 41.6013 41.6053C41.9607 41.2458 42.1626 40.7583 42.1626 40.25C42.1739 39.9918 42.1307 39.7342 42.0358 39.4938C41.9409 39.2535 41.7965 39.0358 41.6119 38.855C41.4273 38.6742 41.2066 38.5343 40.9644 38.4444C40.7221 38.3545 40.4636 38.3167 40.2057 38.3333H32.5793C32.071 38.3333 31.5835 38.1314 31.224 37.772C30.8646 37.4125 30.6626 36.925 30.6626 36.4167C30.6626 35.9083 30.8646 35.4208 31.224 35.0614C31.5835 34.7019 32.071 34.5 32.5793 34.5H38.3293V21.0833H30.6626V32.5833C30.6626 33.0917 30.4607 33.5792 30.1013 33.9386C29.7418 34.2981 29.2543 34.5 28.746 34.5C28.2376 34.5 27.7501 34.2981 27.3907 33.9386C27.0312 33.5792 26.8293 33.0917 26.8293 32.5833V20.5677C26.2469 20.2315 25.7631 19.7479 25.4267 19.1655C25.0903 18.5832 24.913 17.9225 24.9126 17.25V15.3333C24.9126 14.825 25.1146 14.3375 25.474 13.978C25.8335 13.6186 26.321 13.4167 26.8293 13.4167C27.3376 13.4167 27.8251 13.6186 28.1846 13.978C28.544 14.3375 28.746 14.825 28.746 15.3333V17.25H32.5793V15.3333C32.5793 14.825 32.7812 14.3375 33.1407 13.978C33.5001 13.6186 33.9876 13.4167 34.496 13.4167C35.0043 13.4167 35.4918 13.6186 35.8513 13.978C36.2107 14.3375 36.4126 14.825 36.4126 15.3333V17.25H40.246V15.3333C40.246 14.825 40.4479 14.3375 40.8073 13.978C41.1668 13.6186 41.6543 13.4167 42.1626 13.4167C42.671 13.4167 43.1585 13.6186 43.5179 13.978C43.8774 14.3375 44.0793 14.825 44.0793 15.3333V17.25C44.0789 17.9225 43.9017 18.5832 43.5652 19.1655C43.2288 19.7479 42.7451 20.2315 42.1626 20.5677V34.8354C43.2928 35.2154 44.2731 35.9446 44.9621 36.9177C45.651 37.8909 46.0131 39.0578 45.996 40.25ZM26.8293 40.25C26.8293 41.775 26.2235 43.2375 25.1452 44.3159C24.0668 45.3942 22.6043 46 21.0793 46H5.74597C4.34989 45.999 3.00186 45.4902 1.95338 44.5683C0.90491 43.6465 0.227615 42.3748 0.0478707 40.9903C-0.131874 39.6059 0.198211 38.2033 0.976536 37.0443C1.75486 35.8853 2.92826 35.0491 4.2778 34.6917C6.02969 29.0187 7.14817 23.1691 7.6128 17.25C7.24112 17.2416 6.87991 17.1253 6.57317 16.9152C6.26643 16.7052 6.0274 16.4104 5.88521 16.0669C5.74301 15.7234 5.70378 15.346 5.77231 14.9806C5.84083 14.6152 6.01414 14.2776 6.27113 14.0089C6.27113 14.0089 4.3468 11.017 4.30847 10.9384C3.95126 10.1793 3.79149 9.34227 3.84397 8.50494C3.89645 7.66762 4.15948 6.85709 4.60868 6.14851C5.05787 5.43993 5.67869 4.85622 6.41359 4.4515C7.14848 4.04679 7.97367 3.83416 8.81263 3.83333H11.5151V1.91667C11.5151 1.40833 11.7171 0.920823 12.0765 0.561379C12.436 0.201934 12.9235 0 13.4318 0C13.9401 0 14.4276 0.201934 14.7871 0.561379C15.1465 0.920823 15.3485 1.40833 15.3485 1.91667V3.83333H18.0126C18.8519 3.83351 19.6776 4.04567 20.413 4.45012C21.1484 4.85457 21.7698 5.43821 22.2194 6.14689C22.669 6.85558 22.9324 7.66635 22.9851 8.50399C23.0377 9.34163 22.878 10.179 22.5206 10.9384C22.4842 11.017 20.5484 14.0051 20.5484 14.0051C20.8062 14.2731 20.9805 14.6103 21.05 14.9757C21.1195 15.341 21.0813 15.7187 20.9399 16.0627C20.7984 16.4067 20.56 16.7021 20.2536 16.9129C19.9473 17.1237 19.5862 17.2408 19.2144 17.25C19.6852 23.1683 20.8036 29.0171 22.5494 34.6917C23.7761 35.0161 24.8611 35.7371 25.6352 36.7425C26.4093 37.7479 26.8292 38.9811 26.8293 40.25ZM11.45 17.25C11.043 23.0963 9.99865 28.8806 8.33538 34.5H18.4937C16.8335 28.8798 15.7886 23.0959 15.3772 17.25H11.45ZM7.7393 9.21342L10.4226 13.3534L10.4629 13.4167H16.3662L16.4045 13.3534L19.0879 9.21342C19.1517 9.03993 19.1727 8.85363 19.1491 8.6703C19.1256 8.48697 19.0583 8.31201 18.9527 8.16024C18.8472 8.00848 18.7067 7.88438 18.5431 7.79846C18.3794 7.71254 18.1975 7.66733 18.0126 7.66667H8.81263C8.6188 7.66458 8.42771 7.71252 8.25782 7.80586C8.08793 7.8992 7.94498 8.03478 7.8428 8.1995C7.74796 8.34884 7.68922 8.51823 7.67126 8.69423C7.65329 8.87023 7.67659 9.04799 7.7393 9.21342ZM22.996 40.25C22.996 39.7417 22.794 39.2542 22.4346 38.8947C22.0751 38.5353 21.5876 38.3333 21.0793 38.3333H5.74597C5.23763 38.3333 4.75012 38.5353 4.39068 38.8947C4.03123 39.2542 3.8293 39.7417 3.8293 40.25C3.8293 40.7583 4.03123 41.2458 4.39068 41.6053C4.75012 41.9647 5.23763 42.1667 5.74597 42.1667H21.0793C21.5876 42.1667 22.0751 41.9647 22.4346 41.6053C22.794 41.2458 22.996 40.7583 22.996 40.25Z" fill="white"/>
</svg>
