<svg width="13" height="12" viewBox="0 0 13 12" fill="none" xmlns="http://www.w3.org/2000/svg">
<path d="M11.2684 8.24857L9.6069 8.05864C9.41165 8.03576 9.21375 8.05742 9.02808 8.12199C8.8424 8.18655 8.67376 8.29235 8.53483 8.43143L7.33092 9.63457C5.47457 8.69033 3.96569 7.18145 3.02146 5.32511L4.23087 4.11492C4.51262 3.83395 4.64997 3.44154 4.60366 3.04207L4.41452 1.39394C4.37735 1.07484 4.22413 0.780548 3.98405 0.567088C3.74396 0.353628 3.43376 0.235905 3.1125 0.236329H1.98157C1.24227 0.236329 0.627756 0.851629 0.673275 1.59015C1.02017 7.17572 5.48658 11.6359 11.0659 11.9828C11.8044 12.0283 12.4197 11.4138 12.4197 10.6745V9.54353C12.4213 9.22367 12.3047 8.91451 12.0921 8.67547C11.8796 8.43643 11.5862 8.28439 11.2684 8.24857Z" fill="#0E123B"/>
</svg>
