<svg width="24" height="24" viewBox="0 0 24 24" fill="none" xmlns="http://www.w3.org/2000/svg">
<path d="M12.0716 0.784668C8.98 0.784668 8.59407 0.798893 7.38019 0.852947C6.16823 0.909847 5.34319 1.10046 4.61772 1.38211C3.86949 1.6723 3.23411 2.06206 2.60158 2.69459C1.96905 3.32713 1.57834 3.96156 1.2891 4.71074C1.00744 5.43621 0.815881 6.26125 0.75993 7.47321C0.70303 8.68709 0.69165 9.07301 0.69165 12.1646C0.69165 15.2561 0.705875 15.6421 0.75993 16.8559C0.816829 18.067 1.00744 18.893 1.2891 19.6184C1.57928 20.3657 1.96905 21.002 2.60158 21.6346C3.23411 22.2662 3.86854 22.6578 4.61772 22.947C5.34414 23.2278 6.16918 23.4202 7.38019 23.4762C8.59407 23.5331 8.98 23.5445 12.0716 23.5445C15.1631 23.5445 15.5491 23.5303 16.7629 23.4762C17.974 23.4193 18.7999 23.2278 19.5254 22.947C20.2727 22.6569 20.909 22.2662 21.5416 21.6346C22.1732 21.002 22.5648 20.3686 22.854 19.6184C23.1348 18.893 23.3272 18.067 23.3832 16.8559C23.4401 15.6421 23.4515 15.2561 23.4515 12.1646C23.4515 9.07301 23.4372 8.68709 23.3832 7.47321C23.3263 6.2622 23.1348 5.43526 22.854 4.71074C22.5638 3.96251 22.1732 3.32713 21.5416 2.69459C20.909 2.06206 20.2756 1.67136 19.5254 1.38211C18.7999 1.10046 17.974 0.908899 16.7629 0.852947C15.5491 0.796048 15.1631 0.784668 12.0716 0.784668ZM12.0716 2.83305C15.1091 2.83305 15.4713 2.84822 16.671 2.90039C17.7805 2.95254 18.3826 3.13652 18.7829 3.29394C19.3158 3.49972 19.6933 3.74629 20.0935 4.14364C20.4908 4.54194 20.7374 4.92032 20.9431 5.45328C21.0987 5.85347 21.2845 6.45565 21.3348 7.5652C21.3889 8.76576 21.4012 9.12614 21.4012 12.1646C21.4012 15.203 21.3869 15.5643 21.331 16.764C21.2731 17.8735 21.0882 18.4757 20.9317 18.8759C20.7194 19.4088 20.4775 19.7863 20.0793 20.1865C19.6819 20.5838 19.2978 20.8304 18.7706 21.0361C18.3723 21.1917 17.7606 21.3775 16.6511 21.4278C15.4429 21.4819 15.0872 21.4942 12.0431 21.4942C8.99806 21.4942 8.64244 21.48 7.43519 21.4241C6.32471 21.3662 5.71304 21.1812 5.31474 21.0248C4.77514 20.8124 4.40435 20.5706 4.007 20.1723C3.60775 19.7749 3.35265 19.3908 3.1535 18.8636C2.99703 18.4653 2.81306 17.8536 2.75521 16.7441C2.71253 15.5492 2.69736 15.1803 2.69736 12.1504C2.69736 9.11953 2.71253 8.74968 2.75521 7.54054C2.81306 6.431 2.99703 5.82028 3.1535 5.42198C3.35265 4.88144 3.60775 4.51159 4.007 4.11235C4.40435 3.715 4.77514 3.45895 5.31474 3.26074C5.71304 3.10332 6.31143 2.9184 7.42097 2.8615C8.63006 2.81883 8.98569 2.8046 12.0289 2.8046L12.0716 2.83305ZM12.0716 6.32099C8.84251 6.32099 6.22798 8.93837 6.22798 12.1646C6.22798 15.3936 8.84536 18.0082 12.0716 18.0082C15.3006 18.0082 17.9151 15.3908 17.9151 12.1646C17.9151 8.93553 15.2978 6.32099 12.0716 6.32099ZM12.0716 15.9579C9.97574 15.9579 8.27828 14.2604 8.27828 12.1646C8.27828 10.0688 9.97574 8.3713 12.0716 8.3713C14.1674 8.3713 15.8648 10.0688 15.8648 12.1646C15.8648 14.2604 14.1674 15.9579 12.0716 15.9579ZM19.5121 6.09055C19.5121 6.84447 18.8995 7.45614 18.1465 7.45614C17.3926 7.45614 16.7809 6.84352 16.7809 6.09055C16.7809 5.33758 17.3936 4.72591 18.1465 4.72591C18.8986 4.72496 19.5121 5.33758 19.5121 6.09055Z" fill="#0E123B"/>
</svg>
